<?xml version="1.0" encoding="UTF-8" standalone="no"?>
<svg
  xmlns:svg="http://www.w3.org/2000/svg"
  xmlns="http://www.w3.org/2000/svg"
  id="svg10"
  preserveAspectRatio="xMidYMid meet"
  viewBox="0 0 6254.8452 2908.1567"
  height="2908.1567pt"
  width="6254.8452pt"
>
  <defs
    id="defs11880" />
  <path
    id="path4547"
    d="m 252.03938,449.49964 c -57.6624,-7.7773 -108.8289,-44.8984 -134.2651,-97.4086 -20.622004,-42.572 -23.369004,-89.5148 -7.8779,-134.625 5.8075,-16.9118 17.8799,-38.4377 29.7276,-53.0067 23.6277,-29.0545 57.6655,-50.447 94.7167,-59.5286 44.904,-11.006397 93.5205,-3.3792 132.6184,20.8057 30.1539,18.6525 55.0703,46.961 68.805,78.1722 10.2696,23.3369 15.0253,46.0253 15.0253,71.6824 0,27.8492 -5.4924,51.7578 -17.5812,76.5312 -26.1259,53.5395 -76.4379,89.6722 -135.6743,97.4374 -10.9967,1.4416 -34.5923,1.4104 -45.4945,-0.06 z"
    style="fill:#5289c2;fill-opacity:1;stroke-width:0.75"/>
  <path
    style="fill:#5289c2;fill-opacity:1;stroke-width:0.75"
    d="m 1953.7894,2807.1172 c -18.7633,-3.0639 -34.644,-15.5766 -41.649,-32.816 -5.6366,-13.8718 -6.7329,-31.1701 -2.9226,-46.1152 3.9264,-15.4001 15.3456,-27.8205 31.5396,-34.3049 9.4246,-3.7738 18.0431,-5.1608 52.407,-8.4342 l 33,-3.1435 0.2063,-11.7513 c 0.4552,-25.923 -6.0367,-37.3825 -23.5285,-41.5326 -8.3606,-1.9836 -40.3253,-0.6188 -73.6601,3.145 -5.9029,0.6665 -10.8378,1.0914 -10.9666,0.9442 -0.1288,-0.1471 -0.4703,-5.7093 -0.7591,-12.3602 l -0.5251,-12.0927 1.7416,-0.4367 c 2.7335,-0.6856 28.2176,-4.0276 41.8665,-5.4905 8.0891,-0.867 18.4792,-1.3351 30,-1.3516 15.9266,-0.023 18.2755,0.1396 24.375,1.6856 24.4274,6.1912 36.9367,21.7753 40.0757,49.9261 0.4898,4.3927 0.7993,27.4827 0.7993,59.6323 v 52.4641 l 2.4591,4.753 c 3.1641,6.1155 8.2655,9.8144 16.1303,11.6958 l 5.4645,1.3072 -0.3792,2.625 c -0.2085,1.4438 -0.6039,7.1398 -0.8784,12.6578 l -0.4993,10.0328 -7.211,-0.5162 c -15.2048,-1.0883 -25.344,-4.3987 -34.211,-11.1696 l -5.25,-4.009 -5.2228,2.1507 c -23.874,9.831 -55.415,15.2785 -72.4022,12.5046 z m 32.1104,-25.7895 c 9.5913,-1.3377 23.6868,-4.6796 33.5925,-7.9642 l 7.0471,-2.3368 v -32.9513 -32.9512 l -3.1875,0.4138 c -1.7531,0.2276 -14.4937,1.2698 -28.3125,2.3159 -13.8187,1.0461 -27.5278,2.3685 -30.4645,2.9388 -9.8853,1.9193 -18.3803,7.3538 -22.5093,14.3994 -8.2771,14.1237 -6.5217,35.9563 3.8666,48.0918 2.8528,3.3326 7.5709,6.4689 12.2404,8.1369 3.7688,1.3463 17.7438,1.2993 27.7272,-0.093 z m 447.1396,25.8206 c -15.2862,-1.9678 -29.1525,-9.4141 -38.1256,-20.4737 -13.989,-17.2416 -20.5132,-42.9825 -20.5514,-81.0835 -0.041,-40.7594 7.7897,-66.5632 25.6253,-84.4426 18.9159,-18.9624 46.1409,-24.1541 89.6767,-17.101 4.95,0.802 9.5906,1.6407 10.3125,1.8639 1.2398,0.3833 1.3125,-2.0492 1.3125,-43.8947 v -44.3006 h 14.625 14.625 v 143.25 143.25 h -14.625 -14.625 v -6.0803 c 0,-4.5857 -0.2305,-5.9781 -0.9375,-5.6649 -30.2962,13.4223 -47.6568,17.2078 -67.3125,14.6774 z m 33.282,-27.6906 c 8.2231,-1.7921 21.6726,-6.2476 29.7163,-9.8442 l 5.2517,-2.3482 v -68.0726 -68.0726 l -4.6875,-0.8149 c -19.2826,-3.352 -44.4283,-4.3473 -53.0625,-2.1002 -20.9696,5.4575 -32.8234,20.7232 -37.9602,48.8861 -1.74,9.5399 -2.0062,45.0032 -0.4136,55.0924 4.639,29.3872 15.4477,44.4598 34.9988,48.805 4.6502,1.0336 17.9666,0.2542 26.157,-1.5308 z m 666.843,27.6576 c -11.046,-1.3908 -21.9954,-4.9303 -30.187,-9.7583 -6.5002,-3.831 -16.6197,-14.2155 -20.7234,-21.2659 -6.2259,-10.6966 -10.4625,-23.7953 -12.9782,-40.125 -1.9061,-12.3731 -1.9141,-46.3384 -0.013,-58.3529 8.0171,-50.6855 35.1773,-76.5706 80.4023,-76.6278 22.2485,-0.028 39.664,6.0003 52.5838,18.2021 9.1881,8.6775 14.761,17.7879 19.0826,31.1956 3.9981,12.4039 5.4143,22.5746 5.4942,39.458 0.039,8.25 -0.2067,17.6156 -0.5463,20.8125 l -0.6172,5.8125 h -64.1576 -64.1577 l 0.5197,7.6875 c 0.728,10.7689 1.7848,17.2333 3.954,24.1875 5.6284,18.0437 16.7242,28.8051 33.3631,32.3577 6.9064,1.4746 38.3139,1.0528 65.7005,-0.8822 10.0205,-0.7081 18.3503,-1.1561 18.5107,-0.9957 0.1603,0.1603 0.3664,5.3493 0.4577,11.5308 l 0.1662,11.2394 -9.3019,1.2745 c -30.8236,4.2234 -63.5273,6.0156 -77.5518,4.2497 z m 64.5535,-122.3367 c -2.1206,-34.7763 -12.1532,-51.596 -34.1785,-57.2998 -6.602,-1.7097 -21.0715,-1.7098 -28.0497,-10e-5 -16.7776,4.1106 -29.0278,16.6889 -34.21,35.1262 -2.0751,7.3827 -3.7305,18.5374 -3.7359,25.1737 l -0.01,5.4375 h 50.3466 50.3464 l -0.5145,-8.4375 z m 155.3776,122.3666 c -31.9313,-3.554 -51.3621,-19.6643 -59.7223,-49.5164 -3.8418,-13.718 -6.0842,-34.2687 -6.0832,-55.7501 0,-59.2903 17.1508,-89.3259 56.171,-98.3874 15.0568,-3.4966 39.372,-3.097 67.2034,1.1043 l 8.25,1.2455 v 12.1266 c 0,6.6696 -0.2014,12.3272 -0.4474,12.5724 -0.2461,0.2452 -5.9836,-0.1219 -12.75,-0.8159 -7.4898,-0.768 -18.7575,-1.2637 -28.8026,-1.2671 -14.5123,-0.01 -17.1954,0.1863 -22.2724,1.5859 -19.5246,5.3822 -29.799,17.0098 -34.2941,38.8106 -4.5047,21.8476 -3.3857,60.3825 2.292,78.9319 3.9265,12.8278 11.679,22.6037 21.7766,27.4606 9.918,4.7703 13.7006,5.3556 33.9979,5.2615 10.3642,-0.048 22.7707,-0.5801 29.246,-1.254 6.1852,-0.6438 11.3171,-1.0994 11.4042,-1.0124 0.087,0.087 0.4263,5.7614 0.754,12.6097 l 0.5958,12.4515 -3.75,0.4672 c -28.6457,3.5694 -51.1105,4.7622 -63.5689,3.3756 z m 179.4439,-0.269 c -10.0628,-2.1534 -15.9097,-5.0255 -21.9398,-10.7772 -5.5418,-5.2859 -8.8871,-10.7887 -11.7451,-19.3192 -4.8126,-14.3645 -4.8276,-14.6085 -5.1245,-83.3762 l -0.2696,-62.4375 h -13.8355 -13.8355 v -13.125 -13.125 h 13.875 13.875 v -30.375 -30.375 h 14.625 14.625 v 30.375 30.375 h 30 30 v 13.125 13.125 h -30 -30 l 0.01,51.1875 c 0.01,65.6012 0.7707,76.6582 6.0217,87.3483 2.6496,5.3941 6.2394,8.6575 11.5729,10.5208 3.1116,1.087 6.0112,1.2917 16.5238,1.1663 7.0125,-0.084 15.9563,-0.4706 19.875,-0.8599 3.9188,-0.3892 7.1726,-0.6582 7.2308,-0.5979 0.578,0.6003 1.3584,24.2148 0.8122,24.5787 -0.3868,0.2579 -4.8016,1.0511 -9.8107,1.7628 -12.2626,1.7422 -35.9977,2.1911 -42.4823,0.8035 z m 334.125,0.5872 c -6.0394,-0.5043 -17.3908,-2.739 -22.7156,-4.4719 -10.8932,-3.5449 -19.2545,-8.7979 -26.4774,-16.6343 -10.9554,-11.886 -17.3139,-28.0034 -20.6194,-52.2661 -1.8859,-13.8431 -1.9253,-48.8386 -0.069,-61.3262 3.6761,-24.7286 10.0449,-39.525 22.19,-51.553 9.7344,-9.6406 19.652,-14.714 35.3745,-18.0962 6.6015,-1.4201 10.2073,-1.6888 23.1918,-1.7281 16.8744,-0.051 22.4336,0.6474 33.2937,4.1828 35.7819,11.6484 52.3203,46.1726 50.4289,105.2707 -1.3423,41.9416 -10.0036,66.1886 -29.1392,81.5746 -14.3717,11.5556 -39.128,17.2466 -65.4584,15.0477 z m 28.7429,-26.8514 c 20.8737,-5.0804 31.2936,-20.5321 34.6409,-51.3692 1.2668,-11.6708 1.0779,-40.6398 -0.3334,-51.1283 -3.8623,-28.7035 -15.2987,-44.4989 -36.0504,-49.7905 -7.2531,-1.8495 -22.6162,-1.8813 -30.75,-0.064 -21.6016,4.8273 -32.2837,19.039 -36.076,47.9966 -1.597,12.1947 -1.1216,50.4702 0.7602,61.2091 4.8464,27.6548 16.334,40.7004 38.9217,44.2002 6.2958,0.9755 23.0613,0.3636 28.887,-1.0543 z m 546.5071,26.5865 c -42.9133,-4.8657 -61.7402,-29.1821 -65.6038,-84.7324 -3.9613,-56.9561 7.3772,-94.5262 33.2348,-110.1229 19.4725,-11.7454 42.6582,-13.9891 85.3553,-8.2596 6.455,0.8661 12.035,1.7847 12.3999,2.0411 0.365,0.2565 0.5317,5.993 0.3705,12.7476 l -0.2929,12.2814 -3.8569,-0.4527 c -14.5341,-1.706 -34.9829,-2.8546 -43.9819,-2.4706 -12.4792,0.5326 -18.868,1.8838 -26.625,5.6311 -13.3596,6.4538 -20.209,16.577 -24.5249,36.2472 -1.5719,7.1642 -1.6964,9.5511 -1.6947,32.4824 0,20.0582 0.2457,26.1228 1.2882,31.992 4.702,26.4724 14.7721,39.1537 35.4314,44.6192 8.6022,2.2756 43.5579,1.7453 61.2407,-0.9292 l 2.7407,-0.4146 0.421,6.2413 c 0.2315,3.4327 0.5817,9.1497 0.7782,12.7045 l 0.3574,6.4632 -3.894,0.4847 c -28.4566,3.5423 -51.3016,4.7892 -63.144,3.4463 z m 526.8763,-0.078 c -38.2883,-4.4311 -59.1845,-29.4062 -64.5541,-77.1545 -1.1571,-10.2893 -1.1632,-37.3474 -0.011,-46.875 6.7634,-55.9074 36.18,-83.989 85.7967,-81.9031 11.6957,0.4916 21.041,2.4454 30.2948,6.3335 30.0869,12.6411 45.3092,47.3937 42.0531,96.0071 l -0.8666,12.9375 h -63.9823 -63.9823 v 5.0821 c 0,2.7953 0.348,7.9422 0.7732,11.4375 3.3122,27.2209 15.4011,42.9685 36.6076,47.6865 4.8481,1.0785 8.6719,1.198 26.7013,0.8345 11.5736,-0.2334 29.0775,-0.9941 38.8976,-1.6903 9.8201,-0.6962 17.9757,-1.1443 18.1236,-0.9956 0.1478,0.1486 0.5103,5.3489 0.8054,11.5559 l 0.5364,11.2857 -10.035,1.288 c -34.1001,4.3768 -62.2345,5.8975 -77.1588,4.1702 z m 64.4987,-120.1116 c 0,-13.7487 -2.9177,-28.2772 -7.6399,-38.0429 -5.3583,-11.0807 -13.9809,-18.1567 -26.1101,-21.4263 -6.6101,-1.7819 -21.7558,-1.8202 -28.5,-0.072 -23.5586,6.1065 -35.318,24.4542 -37.9333,59.1858 l -0.4941,6.5625 h 50.3387 50.3387 z m 631.875,120.1551 c -9.1936,-1.0996 -20.3584,-4.1342 -27,-7.3387 -12.6746,-6.1154 -20.396,-13.9733 -27.0071,-27.4843 -8.8322,-18.0504 -12.0679,-39.422 -11.4275,-75.4777 0.2972,-16.7262 0.673,-22.2564 2.032,-29.8973 6.6482,-37.3796 23.6529,-56.9789 55.5276,-64.0001 6.1044,-1.3446 9.596,-1.5669 24.375,-1.5515 16.5027,0.017 25.2819,0.7636 45.7499,3.8899 l 3.75,0.5728 -0.146,12.2528 c -0.08,6.7391 -0.285,12.3927 -0.456,12.5636 -0.171,0.1709 -6.012,-0.2636 -12.979,-0.9655 -7.574,-0.7628 -19.154,-1.2801 -28.7939,-1.2862 -14.301,-0.01 -16.8037,0.1761 -22.125,1.6364 -9.5083,2.6093 -15.0702,5.7042 -21.0277,11.7006 -12.2682,12.3485 -16.8493,31.7676 -15.8499,67.1872 0.8928,31.6451 5.3352,47.721 16.1893,58.5866 5.5989,5.6049 11.5133,8.9345 20.2057,11.3754 5.1809,1.4547 7.501,1.6047 24.1076,1.5582 11.0229,-0.031 22.8749,-0.5219 29.6209,-1.2273 6.185,-0.6469 11.296,-1.1179 11.358,-1.047 0.06,0.071 0.355,5.7331 0.653,12.5824 l 0.541,12.4534 -7.024,0.901 c -24.848,3.188 -48.8089,4.3866 -60.2739,3.0153 z m 188.8409,0.034 c -15.648,-1.9864 -27.637,-6.8721 -38.41,-15.6523 -8.451,-6.8879 -17.46,-21.8933 -21.437,-35.7052 -6.621,-22.9898 -8.014,-57.6473 -3.357,-83.5082 6.77,-37.5999 25.921,-60.8738 56.613,-68.803 5.819,-1.5033 10.022,-2.0241 18.75,-2.3238 24.895,-0.8546 43.867,5.3504 57.74,18.885 6.136,5.9859 9.042,10.0143 13.148,18.2272 8.381,16.7649 12.058,40.5946 10.205,66.1478 l -0.843,11.625 -63.937,0.1917 -63.938,0.1917 0.01,6.1833 c 0.02,25.3517 9.758,45.8413 25.548,53.7444 10.026,5.0183 14.269,5.5868 38.142,5.1106 11.374,-0.2268 28.879,-0.991 38.9,-1.698 10.02,-0.7071 18.333,-1.1592 18.471,-1.0047 0.139,0.1545 0.492,5.3718 0.784,11.594 l 0.532,11.313 -16.753,1.9871 c -9.214,1.093 -20.635,2.3312 -25.378,2.7518 -12.519,1.1098 -38.498,1.5406 -44.784,0.7426 z m 64.284,-119.9441 c 0,-8.9726 -2.012,-22.5266 -4.493,-30.2732 -5.215,-16.28 -14.918,-25.9085 -29.717,-29.4888 -6.881,-1.6647 -21.398,-1.6776 -28.222,-0.025 -17.885,4.3307 -29.78,17.5135 -34.965,38.7486 -1.472,6.0291 -3.103,18.8835 -3.103,24.4545 v 2.5455 h 50.25 50.25 z m 144,119.9191 c -14.348,-1.2638 -50.739,-6.1965 -51.527,-6.9843 -0.237,-0.237 1.307,-23.9791 1.578,-24.2652 0.09,-0.092 6.552,0.6516 14.366,1.652 26.734,3.4225 39.429,4.3289 54.708,3.9066 20.094,-0.5555 28.565,-3.0196 35.756,-10.4009 6.063,-6.2248 9.12,-18.3605 7.451,-29.5826 -2.307,-15.5128 -9.541,-19.5313 -47.707,-26.5018 -38.432,-7.019 -54.594,-14.884 -62.842,-30.5802 -7.8,-14.843 -7.298,-37.5461 1.191,-53.8261 3.136,-6.0142 12.937,-15.8191 19.401,-19.408 6.317,-3.5073 14.936,-6.6556 23.125,-8.4473 8.547,-1.8699 35.103,-1.8724 51.375,-0.01 10.532,1.2087 34.154,4.6359 37.5,5.4407 1.436,0.3454 1.49,0.8786 1.259,12.5067 -0.133,6.6803 -0.302,12.2051 -0.375,12.2775 -0.07,0.072 -5.021,-0.5191 -10.995,-1.3141 -34.918,-4.6477 -61.534,-5.8923 -72.366,-3.384 -8.211,1.9013 -13.583,4.5973 -18.095,9.0813 -5.398,5.3651 -7.246,10.4575 -7.348,20.2521 -0.07,6.7824 0.123,7.9093 2.022,11.778 4.797,9.7725 14.406,13.8249 46.648,19.6728 17.56,3.185 26.776,5.42 35.766,8.6739 15.734,5.6947 25.5,15.1272 29.395,28.3891 3.003,10.2267 3.03,28.4 0.06,40.0578 -4.722,18.5243 -18.323,31.7588 -38.594,37.5539 -12.013,3.4345 -34.758,4.9539 -51.75,3.457 z m -1323.7499,-0.4338 c -27.9019,-2.4183 -60.0269,-6.0724 -60.8293,-6.9192 -0.465,-0.4907 1.2777,-25.5529 1.8141,-26.0893 0.1631,-0.1631 8.5301,0.5542 18.5934,1.594 38.585,3.9865 62.7771,5.0598 75.43,3.3463 7.8735,-1.0662 19.1457,-4.9817 24.4196,-8.4823 8.2531,-5.4783 14.5221,-14.6293 17.5362,-25.5982 1.6106,-5.8611 2.2706,-24.8032 1.0663,-30.604 -2.9131,-14.0321 -13.6233,-23.607 -34.5303,-30.87 -4.3312,-1.5046 -15.6754,-4.7241 -25.2091,-7.1545 -21.5528,-5.4942 -33.5268,-9.4521 -44.2341,-14.6208 -28.0988,-13.5643 -38.5999,-32.5668 -37.6195,-68.0753 0.4311,-15.6142 2.2608,-23.7005 7.7967,-34.4579 2.8771,-5.5906 4.9251,-8.3165 10.3633,-13.7934 10.1793,-10.2516 20.8434,-15.8458 37.0568,-19.4392 19.3455,-4.2875 38.5059,-4.3663 76.2209,-0.3136 13.3442,1.434 34.1683,4.247 34.5945,4.6732 0.1811,0.1811 -1.2985,26.3205 -1.499,26.4828 -0.052,0.043 -7.0142,-0.6848 -15.4705,-1.6162 -42.0841,-4.6349 -67.8569,-5.6166 -80.625,-3.071 -25.5378,5.0917 -38.6352,20.0218 -38.5858,43.9849 0.042,20.2387 6.7755,32.0436 23.0124,40.343 9.5994,4.9066 16.8805,7.3262 39.9484,13.2754 32.0348,8.2618 47.9962,14.5691 58.8665,23.262 17.3239,13.8538 23.7773,34.4516 20.5926,65.7276 -2.5246,24.7946 -10.5567,41.6833 -25.0841,52.7439 -6.3421,4.8286 -13.6614,8.5621 -21.8448,11.143 -11.6833,3.6846 -17.946,4.4303 -38.9052,4.6329 -10.725,0.1036 -21.0187,0.057 -22.875,-0.1041 z m -2592,-102.2737 v -99.75 h 14.625 14.625 v 6.6979 6.6978 l 8.4375,-3.997 c 16.9415,-8.0255 32.2374,-12.2065 47.2429,-12.9135 29.1301,-1.3724 48.3299,7.9866 58.2529,28.3957 9.7032,19.9569 11.2512,37.0828 11.2931,124.9316 l 0.024,49.6875 h -14.5575 -14.5575 l -0.3428,-63.9375 c -0.3591,-66.9674 -0.5772,-71.673 -3.9208,-84.5765 -3.829,-14.7764 -11.5043,-23.2721 -24.0526,-26.6234 -6.7,-1.7895 -21.2733,-1.6187 -31.0688,0.3642 -8.9161,1.8047 -22.7153,6.292 -31.1014,10.1137 l -5.6486,2.5742 v 81.0426 81.0427 h -14.625 -14.625 v -99.75 z m 583.5,-39 v -138.75 h 81.75 81.75 v 13.875 13.875 h -66.75 -66.75 v 47.625 47.625 h 54.75 54.75 v 13.875 13.875 h -54.75 -54.75 v 49.125 49.125 h 66.75 66.75 v 14.25 14.25 h -81.75 -81.75 z m 237,-4.5 v -143.25 h 14.625 14.625 v 143.25 143.25 h -14.625 -14.625 z m 682.5,43.5 v -99.75 h 15 15 v 13.2112 13.2113 l 2.0625,-1.3649 c 19.9934,-13.2317 38.7533,-22.1571 56.6458,-26.9508 3.8041,-1.0191 7.0011,-1.8539 7.1042,-1.8549 0.1031,0 0.1875,6.8611 0.1875,15.2493 v 15.2511 l -9.0349,2.3846 c -13.8572,3.6573 -26.7039,8.6816 -42.3401,16.559 l -14.25,7.1791 -0.1912,73.3125 -0.1911,73.3125 h -14.9964 -14.9963 z m 388.5,0 v -99.75 h 14.625 14.625 v 6.7057 6.7057 l 8.4375,-4.0476 c 16.351,-7.8436 32.2253,-12.171 47.2429,-12.8786 28.6214,-1.3484 48.0156,7.8886 57.7705,27.5148 5.6235,11.3143 8.6439,23.9984 10.269,43.125 0.4395,5.1728 0.768,35.2324 0.7724,70.6875 l 0.01,61.6875 h -14.1794 -14.1793 l -0.3686,-63.5625 c -0.2403,-41.4218 -0.6699,-65.9137 -1.2336,-70.3125 -3.2355,-25.255 -10.8581,-37.0261 -26.7203,-41.2624 -6.7105,-1.7922 -21.2773,-1.6191 -31.0688,0.3693 -9.168,1.8617 -22.649,6.229 -30.9375,10.0225 l -5.8125,2.6603 v 81.0426 81.0427 h -14.625 -14.625 v -99.75 z m 237,0 v -99.75 h 14.25 14.25 v 99.75 99.75 h -14.25 -14.25 z m 859.5,0 v -99.75 h 14.625 14.625 v 13.125 c 0,7.2188 0.2213,13.125 0.4917,13.125 0.2705,0 1.5361,-0.7909 2.8125,-1.7575 7.5953,-5.7517 24.8897,-15.0532 37.8854,-20.3758 6.8181,-2.7925 22.9053,-7.8667 24.9405,-7.8667 0.3409,0 0.6199,6.8908 0.6199,15.3128 v 15.3129 l -3.9375,0.8284 c -15.6796,3.2989 -38.0456,12.0831 -55.875,21.9447 l -6.9375,3.8371 v 73.0071 73.007 h -14.625 -14.625 z m 189.75,99.4592 c 0,-0.1696 -12.3187,-44.8986 -27.375,-99.3977 -15.0562,-54.4991 -27.375,-99.2518 -27.375,-99.4504 0,-0.1986 6.8517,-0.3611 15.226,-0.3611 h 15.226 l 23.131,86.4375 c 12.7221,47.5406 23.2877,86.8594 23.4793,87.375 0.2423,0.6523 2.3503,0.9375 6.9305,0.9375 5.6345,0 6.633,-0.189 6.9347,-1.3125 0.1938,-0.7219 10.9177,-40.0406 23.8308,-87.375 l 23.4783,-86.0625 h 14.8818 c 11.4176,0 14.8762,0.2183 14.8585,0.9375 -0.013,0.5156 -12.4503,45.3188 -27.6391,99.5625 l -27.6161,98.625 -28.9858,0.1963 c -15.9423,0.108 -28.9859,0.058 -28.9859,-0.1121 z m 174,-99.4592 v -99.75 h 14.625 14.625 v 99.75 99.75 h -14.625 -14.625 z m -1223.25,-160.5 v -17.25 h 14.25 14.25 v 17.25 17.25 h -14.25 -14.25 z m 1223.25,0 v -17.25 h 14.625 14.625 v 17.25 17.25 h -14.625 -14.625 z m -990,-131.2354 c 0,-0.6627 24.4596,-84.5838 25.3065,-86.8271 0.2754,-0.7294 -2.7897,-0.9375 -13.8082,-0.9375 h -14.1622 l -27.2761,-98.0625 c -15.0019,-53.9344 -27.4356,-98.6531 -27.6305,-99.375 -0.3287,-1.2173 0.7084,-1.3125 14.2999,-1.3125 h 14.6543 l 0.7753,2.4375 c 1.2799,4.0243 47.341,167.6171 47.341,168.1388 0,0.2652 2.949,0.3845 6.5534,0.2654 l 6.5535,-0.2167 23.3853,-82.125 c 12.862,-45.1688 23.7554,-83.5594 24.2074,-85.3125 l 0.822,-3.1875 h 14.6955 14.6955 l -0.5054,2.0625 c -0.278,1.1344 -18.5396,65.5943 -40.5813,143.2441 -22.0418,77.6499 -40.0759,141.353 -40.0759,141.5625 0,0.2095 -6.5812,0.3809 -14.625,0.3809 -9.0571,0 -14.625,-0.28 -14.625,-0.7354 z m -2023.5,-84.0101 c -42.2923,-3.5004 -63.4293,-24.498 -70.1264,-69.6641 -1.8317,-12.3524 -2.6793,-34.785 -1.8567,-49.1318 1.233,-21.5036 4.2296,-35.7694 10.1555,-48.3466 6.9747,-14.8031 15.8357,-24.0596 29.1843,-30.4868 13.5218,-6.5105 24.2621,-8.6266 43.7601,-8.6216 25.3425,0.01 42.9352,5.7899 56.4797,18.5671 6.6904,6.3114 11.0169,12.3543 15.2436,21.2913 7.1088,15.0306 10.0927,30.5219 10.6995,55.5471 1.5043,62.0464 -13.7619,95.0323 -49.332,106.5924 -11.3854,3.7002 -29.6532,5.4576 -44.2076,4.253 z m 28.2326,-27.0395 c 11.821,-3.0055 20.7188,-9.8214 25.8992,-19.8394 5.5855,-10.8015 7.7302,-20.8447 9.0096,-42.1886 1.4317,-23.8869 -0.5301,-45.9264 -5.3077,-59.6267 -5.5765,-15.9914 -15.9105,-26.1418 -30.8337,-30.2856 -7.5468,-2.0956 -26.1127,-1.9156 -33.9924,0.3296 -15.497,4.4157 -24.3855,13.0521 -29.5917,28.7526 -4.2817,12.9125 -4.9893,19.3017 -5.0137,45.2687 -0.023,24.1588 0.5271,31.0555 3.4377,43.125 3.0797,12.771 10.0295,23.7237 18.4818,29.1269 10.8322,6.9245 32.2738,9.3132 47.9109,5.3375 z m 694.6251,27.0034 c -12.7824,-1.4906 -22.9447,-6.4447 -32.1381,-15.6671 -5.2823,-5.299 -7.0215,-7.675 -9.9182,-13.5507 -6.2951,-12.7691 -8.5276,-27.8417 -6.287,-42.447 2.8248,-18.4139 11.5002,-31.0381 26.7016,-38.8556 12.5735,-6.4661 19.1282,-7.7648 57.034,-11.3001 15.4688,-1.4427 29.772,-2.835 31.7851,-3.094 l 3.6601,-0.4709 -0.4134,-13.6037 c -0.4194,-13.7992 -1.1042,-17.915 -4.0731,-24.4826 -3.4476,-7.6264 -11.0197,-13.2236 -20.3506,-15.043 -8.794,-1.7147 -43.6188,-0.099 -73.915,3.4304 -5.3251,0.6202 -9.7968,1.0128 -9.9373,0.8723 -0.1404,-0.1405 -0.4743,-5.807 -0.7419,-12.5922 l -0.4866,-12.3368 14.9239,-2.0278 c 29.4566,-4.0025 37.2105,-4.6193 58.0488,-4.6171 18.1722,0 20.3891,0.1439 25.875,1.6557 17.825,4.9126 29.0496,14.8285 34.8851,30.8179 4.6374,12.7069 4.6591,13.0318 5.0235,74.9543 0.3594,61.0531 0.1627,58.2675 4.5386,64.2866 2.5374,3.4902 9.0429,7.2039 15.0814,8.6093 l 4.0287,0.9376 -0.4977,10.5909 c -0.2739,5.8249 -0.6719,11.4857 -0.8846,12.5794 l -0.3867,1.9886 -6.1441,-0.3735 c -14.7525,-0.8966 -26.6349,-4.8251 -35.705,-11.8044 l -4.3892,-3.3774 -6.3932,2.578 c -15.9132,6.4167 -35.6965,11.0906 -52.2818,12.3516 -5.5687,0.4234 -10.4625,0.7263 -10.875,0.6731 -0.4125,-0.053 -3.0078,-0.36 -5.7673,-0.6818 z m 28.0414,-25.8426 c 10.9466,-1.4527 21.9736,-3.9919 33.2259,-7.6512 l 9,-2.9269 0.1954,-32.7735 c 0.1539,-25.8194 0,-32.7736 -0.7419,-32.7736 -5.5422,0 -59.1242,4.8366 -62.6888,5.6586 -17.0613,3.9344 -26.3637,16.3604 -26.3637,35.2164 0,16.9514 8.2041,30.4883 21.1989,34.9784 4.9242,1.7015 14.6404,1.8024 26.1742,0.2718 z m 203.4759,25.5642 c -22.3726,-4.3876 -32.9681,-16.5247 -38.3584,-43.9394 -1.0947,-5.5673 -1.2913,-14.3804 -1.5527,-69.5625 l -0.2992,-63.1875 h -13.8324 -13.8323 v -12.75 -12.75 h 13.875 13.875 v -30.75 -30.75 h 14.625 14.625 v 30.75 30.75 h 30 30 v 12.75 12.75 h -30 -30 l 0.011,51.1875 c 0.016,74.4334 0.9745,83.5924 9.742,93.104 4.9352,5.3541 9.2931,6.6786 21.7469,6.6096 5.5687,-0.031 14.468,-0.4312 19.7762,-0.8899 5.3081,-0.4586 9.7382,-0.7331 9.8446,-0.61 0.2529,0.2924 1.7516,24.1642 1.533,24.418 -0.092,0.1069 -4.8611,0.8826 -10.5981,1.7238 -13.499,1.9796 -34.0195,2.5509 -41.1807,1.1464 z m 289.125,0.5909 c -19.0426,-1.2381 -34.8302,-6.2584 -46.1527,-14.6759 -9.5541,-7.1029 -17.1724,-18.5585 -21.9335,-32.9815 -3.9587,-11.9924 -5.9924,-24.4038 -7.0627,-43.1036 -1.9793,-34.5798 2.7099,-64.4418 12.9405,-82.4095 6.387,-11.2171 17.934,-21.5449 29.6699,-26.5371 12.4054,-5.2771 25.2094,-7.1736 44.5288,-6.5954 20.5414,0.6147 32.049,3.7519 44.742,12.1976 17.4861,11.6348 27.9087,31.0925 32.3135,60.3251 1.8508,12.2828 1.8079,47.5972 -0.074,60.375 -3.6941,25.0918 -9.8639,40.1761 -21.433,52.4005 -12.8311,13.5578 -29.7382,19.9386 -55.5396,20.961 -4.3312,0.1716 -9.7312,0.1914 -12,0.044 z m 23.625,-26.9572 c 7.6536,-1.534 15.4776,-5.6557 20.5877,-10.8456 11.4228,-11.6016 15.937,-29.8685 16.0268,-64.8525 0.05,-19.4672 -0.7971,-28.7136 -3.6668,-40.0289 -4.0814,-16.0928 -12.3888,-27.5892 -23.8902,-33.0609 -8.787,-4.1802 -12.6338,-4.9142 -25.5575,-4.8762 -12.7194,0.037 -17.5127,0.9841 -26.5157,5.2362 -12.5137,5.9103 -19.9045,17.9156 -23.8877,38.8021 -1.9637,10.2968 -1.9484,53.5526 0.023,65.4277 4.8764,29.3722 17.3834,42.7263 42.5054,45.3842 6.8951,0.7295 17.357,0.2204 24.375,-1.1861 z m 977.2663,26.6311 c -11.8112,-0.8321 -26.1163,-2.4841 -42.9613,-4.9613 -11.5135,-1.6931 -13.6414,-2.2014 -13.3584,-3.1909 0.1852,-0.6474 0.5696,-5.9934 0.8545,-11.8802 0.2848,-5.8867 0.8035,-10.8796 1.1526,-11.0954 0.3491,-0.2159 7.4774,0.466 15.8406,1.5152 33.7204,4.2302 52.4023,5.0998 65.8894,3.0666 21.0207,-3.1687 29.6262,-11.9736 30.5093,-31.2158 0.9939,-21.6594 -6.5297,-27.1725 -47.068,-34.4903 -31.7821,-5.7372 -46.2226,-11.1746 -56.6402,-21.3271 -8.3708,-8.1578 -12.3598,-19.4448 -12.3598,-34.9726 0,-30.9178 18.5362,-50.8847 52.5125,-56.566 6.3321,-1.0587 10.6502,-1.2128 24.2821,-0.8662 9.1192,0.2318 20.9679,0.9644 26.3304,1.6277 16.3098,2.0177 35.2148,4.9632 35.8479,5.5853 0.3288,0.3231 0.3622,5.8704 0.074,12.3272 -0.4479,10.0399 -0.6973,11.7394 -1.7229,11.7388 -0.6595,-5e-4 -6.2616,-0.6508 -12.4491,-1.4451 -22.6009,-2.9014 -37.0521,-4.0584 -51.375,-4.1134 -13.26,-0.051 -15.2112,0.1109 -20.9053,1.7338 -11.4545,3.2646 -18.7873,9.8622 -21.5594,19.3978 -1.712,5.889 -1.1643,17.4136 1.0275,21.6237 4.6332,8.8994 15.2424,13.3563 44.4372,18.6679 47.6732,8.6735 61.7478,16.9784 68.0197,40.1361 2.0218,7.4651 1.7945,28.2139 -0.3986,36.375 -5.2531,19.548 -17.2941,31.8482 -37.3229,38.1259 -11.8004,3.6987 -31.5742,5.4069 -48.657,4.2033 z m 208.0051,-0.3756 c -22.8042,-4.1274 -33.7544,-17.2932 -38.6361,-46.4536 -1.0823,-6.4651 -1.2983,-15.9608 -1.5653,-68.8125 l -0.3097,-61.3125 h -13.4427 -13.4426 v -12.75 -12.75 h 13.5 13.5 v -30.75 -30.75 h 15 15 v 30.75 30.75 h 29.625 29.625 v 12.75 12.75 h -29.6653 -29.6655 l 0.293,60.9375 c 0.2498,51.971 0.4666,61.71 1.4736,66.1875 3.5984,16.0003 9.0415,22.0029 21.354,23.5489 4.9399,0.6203 23.2855,0.022 33.3166,-1.0851 l 4.2314,-0.4673 0.4393,4.3768 c 0.2415,2.4072 0.6534,7.9679 0.9151,12.3573 l 0.4758,7.9805 -5.1465,0.8423 c -18.742,3.0675 -36.4574,3.7857 -46.8751,1.9002 z m 172.3302,0.373 c -13.3774,-1.1857 -25.6447,-4.9636 -34.3168,-10.5687 -9.8923,-6.3937 -19.2849,-17.5243 -24.2369,-28.7215 -12.9277,-29.2318 -14.2703,-82.0665 -2.9145,-114.6909 5.0035,-14.3748 11.088,-24.0957 20.8447,-33.3033 13.7506,-12.9766 30.5975,-18.9172 53.6469,-18.9172 24.1929,0 42.0126,6.5745 55.2161,20.3717 16.5911,17.3373 24.2745,46.2191 21.8651,82.1908 l -0.8666,12.9375 h -64.0926 -64.0927 l 0.4227,8.8125 c 1.4102,29.3981 12.2287,47.4408 32.305,53.8777 4.8345,1.55 8.1886,2.0461 15.9872,2.3644 9.9372,0.4057 37.3329,-0.6703 60.2558,-2.3666 6.8063,-0.5036 12.4307,-0.8926 12.4986,-0.8644 0.068,0.028 0.3665,5.1614 0.6634,11.4071 l 0.5398,11.3558 -2.1634,0.4395 c -12.1486,2.4681 -63.938,6.9541 -73.4134,6.359 -0.825,-0.052 -4.4917,-0.3593 -8.1484,-0.6834 z m 61.0213,-120.1391 c -0.01,-14.3297 -3.2674,-29.9016 -8.2855,-39.5471 -8.0454,-15.4643 -22.4862,-22.6188 -43.4624,-21.5328 -14.2755,0.739 -24.6829,5.3596 -33.1523,14.7187 -8.8607,9.7913 -13.7162,24.1991 -15.2447,45.2362 l -0.5313,7.3125 h 50.3391 50.3392 v -6.1875 z m 509.1326,120.1436 c -10.4108,-0.6996 -28.2596,-2.8034 -45.3029,-5.3398 l -10.9738,-1.6332 0.4311,-4.554 c 0.237,-2.5048 0.6535,-8.0508 0.9255,-12.3246 l 0.4946,-7.7706 3.46,0.4533 c 44.8563,5.877 69.2551,7.0104 83.5859,3.8832 17.673,-3.8567 25.429,-13.6527 25.568,-32.2954 0.07,-9.4049 -1.112,-13.6103 -5.098,-18.1394 -5.461,-6.2034 -14.172,-9.2865 -39.8459,-14.1026 -35.3755,-6.636 -48.2557,-11.4173 -58.5128,-21.7212 -9.2108,-9.2528 -12.4464,-18.0859 -12.5138,-34.1618 -0.047,-11.2121 1.3152,-18.3131 5.0025,-26.0773 8.2706,-17.4157 25.6769,-28.5344 49.6885,-31.7398 8.2892,-1.1066 34.3525,-0.4944 47.8355,1.1235 14.382,1.7257 35.944,5.0392 36.375,5.5896 0.206,0.2634 0.275,5.9105 0.153,12.549 l -0.222,12.07 -3.903,-0.6238 c -7.695,-1.2297 -36.379,-4.3263 -48.153,-5.198 -25.3365,-1.876 -39.7319,0.8244 -48.7608,9.147 -6.2211,5.7343 -9.2673,14.8017 -8.2771,24.637 0.9238,9.1757 4.6717,14.3382 13.5533,18.6687 6.6015,3.2188 15.5021,5.5287 35.2276,9.1425 17.852,3.2706 24.759,4.8871 33.21,7.7714 12.388,4.2285 21.32,10.1808 26.543,17.6902 9.146,13.1487 10.417,39.3068 2.886,59.4335 -2.213,5.9162 -8.5,14.4202 -13.882,18.7778 -14.266,11.5513 -38.981,16.7952 -69.4944,14.7448 z m -1384.3805,-0.7221 c -19.9627,-1.4949 -59.5608,-6.0448 -60.4632,-6.9472 -0.1936,-0.1937 0.054,-6.2243 0.5507,-13.4014 l 0.9028,-13.0493 15.0674,1.6341 c 51.1225,5.5444 73.6074,5.971 89.0986,1.6904 17.4263,-4.8154 28.5662,-16.2812 32.6298,-33.5843 1.9346,-8.2381 1.8914,-26.5905 -0.076,-32.3263 -4.4347,-12.9278 -14.1575,-20.8548 -34.21,-27.8912 -2.2687,-0.7961 -12.4038,-3.5952 -22.5223,-6.2203 -10.1187,-2.625 -22.2687,-6.0241 -27,-7.5535 -37.1798,-12.0182 -52.5487,-27.7803 -56.6362,-58.085 -4.6868,-34.7471 6.5566,-62.6484 30.8204,-76.4835 7.0843,-4.0394 19.7213,-8.3651 29.9631,-10.2565 10.9395,-2.0202 44.61,-1.8473 64.5,0.3311 18.9712,2.0778 38.272,4.7272 39.3667,5.4037 0.6564,0.4057 0.7453,3.6478 0.3449,12.5831 -0.2965,6.62 -0.7852,12.4344 -1.0858,12.9207 -0.4133,0.6689 -5.0931,0.4115 -19.2111,-1.0566 -52.0367,-5.411 -70.2974,-5.4174 -86.3461,-0.03 -14.8145,4.9731 -24.9414,15.6762 -27.8528,29.4374 -1.198,5.663 -1.0336,20.6137 0.2884,26.2208 2.706,11.4771 9.6583,19.9753 21.1976,25.911 9.1256,4.6941 17.1531,7.3793 38.7982,12.9775 39.3167,10.1687 54.8402,17.0266 66.4857,29.3714 11.0361,11.6989 14.9377,23.8405 14.9287,46.4574 -0.02,48.3655 -19.2374,73.4832 -61.9144,80.9207 -8.0404,1.4013 -34.8894,1.9796 -47.625,1.0258 z m -2377.5,-141.359 v -138.375 h 15.375 15.375 v 138.375 138.375 h -15.375 -15.375 z m 118.5,39 v -99.375 h 15 15 v 6.375 c 0,3.5063 0.1763,6.375 0.3917,6.375 0.2154,0 2.9997,-1.3076 6.1875,-2.9059 7.8623,-3.942 19.0367,-8.0559 29.4208,-10.8314 8.3037,-2.2195 9.1978,-2.3051 24,-2.3006 13.518,0.01 16.0944,0.2037 21.3315,1.6525 18.0948,5.0055 29.4637,15.8933 35.8046,34.2894 2.3964,6.9527 4.5953,16.9597 5.9262,26.971 0.6153,4.6284 0.9972,27.5531 1.215,72.9375 l 0.3178,66.1875 h -14.6725 -14.6726 v -61.2727 c 0,-39.2847 -0.2994,-64.3822 -0.8343,-69.9375 -0.9708,-10.0816 -3.4498,-20.5911 -6.2569,-26.5247 -4.0201,-8.4978 -11.8021,-14.7175 -21.4088,-17.1109 -5.219,-1.3002 -20.276,-1.2851 -27.75,0.028 -8.0349,1.4115 -21.5619,5.609 -30.9375,9.5999 l -8.0625,3.432 v 80.893 80.893 h -15 -15 v -99.375 z m 241.5,12.75 v -86.625 h -12.375 -12.375 v -12.75 -12.75 h 12.375 12.375 v -16.4616 c 0,-45.5838 9.5284,-65.1651 35.1424,-72.2194 4.8511,-1.3361 7.8084,-1.5778 19.2326,-1.5716 11.957,0.01 27.6523,1.0412 33.5625,2.2129 2.0066,0.3978 2.0625,0.5466 2.0625,5.4841 0,2.7913 -0.2152,8.1075 -0.4783,11.8136 l -0.4783,6.7385 -19.9592,-0.061 c -19.4935,-0.059 -20.0516,-0.019 -23.9187,1.7286 -5.0372,2.2764 -10.0822,7.8303 -12.2034,13.4345 -2.6536,7.0107 -3.6404,14.6063 -4.1851,32.2137 l -0.5162,16.6875 h 28.9946 28.9946 v 12.75 12.75 h -28.875 -28.875 v 86.625 86.625 h -14.25 -14.25 z m 374.25,-12.75 v -99.375 h 14.625 14.625 v 13.0776 13.0776 l 8.5741,-5.4819 c 17.4592,-11.1626 40.0212,-21.0308 54.9884,-24.0507 l 2.4375,-0.4918 v 15.2471 15.2471 l -9.379,2.4274 c -15.4353,3.9948 -34.6178,11.7902 -49.1505,19.9739 l -7.092,3.9937 -0.1912,72.8649 -0.1913,72.8651 h -14.6212 -14.6213 v -99.375 z m 163.5,0 v -99.375 h 14.625 14.625 v 6.7575 6.7576 l 6.7354,-3.3827 c 8.8987,-4.4692 19.7763,-8.7641 28.5322,-11.2655 9.5548,-2.7295 26.1837,-3.4247 36.3574,-1.5198 11.8608,2.2208 21.1532,6.7962 28.6597,14.1115 4.5418,4.4263 2.4111,4.6519 19.7153,-2.0874 13.1378,-5.1167 28.0333,-9.5562 39.2883,-11.7095 10.9669,-2.0982 29.6908,-1.7328 39.0432,0.7618 15.0606,4.0172 25.7741,12.5447 32.1734,25.6089 5.473,11.173 8.5029,23.7148 10.2293,42.3426 0.4468,4.8205 0.7648,34.0486 0.7652,70.3125 l 6e-4,62.0625 h -14.5742 -14.5743 l -0.3266,-66.1875 c -0.2776,-56.2829 -0.5064,-67.2249 -1.5282,-73.12 -3.6849,-21.2557 -9.8793,-30.2838 -23.9356,-34.8844 -6.9255,-2.2668 -22.9046,-2.2083 -33.0931,0.1211 -15.6172,3.5706 -37.8163,12.4298 -36.9304,14.7383 0.9459,2.4653 3.3992,16.0104 4.2712,23.5825 0.6114,5.3098 1.0129,28.702 1.2326,71.8125 l 0.3257,63.9375 h -14.6313 -14.6313 l -0.3298,-63.9375 c -0.3522,-68.2757 -0.4175,-69.5504 -4.2886,-83.6619 -4.0846,-14.8898 -12.66,-24.0566 -25.4861,-27.2438 -5.8517,-1.454 -19.9624,-1.247 -27.7298,0.4071 -8.2199,1.7503 -19.3921,5.6572 -28.2401,9.8754 l -7.0301,3.3517 v 80.6045 80.6045 h -14.625 -14.625 z m 737.25,0 v -99.375 h 14.625 14.625 v 99.375 99.375 h -14.625 -14.625 z m 342.75,0 v -99.375 h 14.625 14.625 v 6.375 c 0,3.5063 0.1784,6.375 0.3964,6.375 0.218,0 2.3274,-0.9698 4.6875,-2.1552 7.6318,-3.833 21.3178,-8.9698 30.5411,-11.4629 8.7827,-2.3739 9.3713,-2.4325 24.375,-2.4239 13.4701,0.01 16.1184,0.212 21.375,1.6498 21.3704,5.845 33.3317,19.6882 39.0869,45.2367 3.8192,16.954 4.1334,23.2654 4.5594,91.593 l 0.3963,63.5625 h -14.6472 -14.6472 l -0.33,-63.9375 c -0.3534,-68.4478 -0.6118,-73.5257 -4.3664,-85.7957 -6.4147,-20.9637 -21.1073,-28.9724 -47.1964,-25.726 -12.0368,1.4977 -29.2431,6.6976 -39.9179,12.0631 l -4.3125,2.1677 v 80.6142 80.6142 h -14.625 -14.625 z m 1381.5,0 v -99.375 h 15 15 v 6.7312 6.7313 l 7.6016,-3.7996 c 9.3055,-4.6512 18.7289,-8.3341 27.866,-10.8907 9.3995,-2.6301 26.1983,-3.291 36.1574,-1.4226 11.4509,2.1481 21.5308,7.2343 29.3822,14.8257 2.109,2.0391 3.5791,2.8974 4.5,2.6272 0.7523,-0.2207 6.5991,-2.4367 12.9928,-4.9245 14.4787,-5.6335 26.6484,-9.3376 38.9006,-11.8402 8.6269,-1.762 10.6149,-1.9024 22.2244,-1.5693 14.7591,0.4235 21.2504,1.8292 30.3745,6.5779 16.8388,8.764 25.5823,24.9861 29.6875,55.0811 1.1661,8.5485 1.3657,17.7971 1.6226,75.185 l 0.2929,65.4375 h -14.612 -14.6119 l -0.3522,-64.3125 c -0.3611,-65.9402 -0.5637,-70.7063 -3.5397,-83.2763 -4.593,-19.4004 -16.4279,-28.5307 -37.1117,-28.6306 -10.6689,-0.052 -28.1617,3.9941 -42,9.7137 -4.125,1.7049 -8.7979,3.6344 -10.3842,4.2879 -2.5267,1.0408 -2.8323,1.4301 -2.4651,3.1404 4.5661,21.2668 4.4349,18.7384 4.761,91.7649 l 0.3006,67.3125 h -14.2246 -14.2245 l -0.3468,-62.0625 c -0.2934,-52.5051 -0.5382,-63.3908 -1.5899,-70.6875 -2.9118,-20.2034 -8.1665,-31.2785 -17.7924,-37.5 -6.4555,-4.1724 -12.1321,-5.5592 -22.7841,-5.5664 -13.7344,-0.01 -26.7768,3.2898 -42.9375,10.8606 l -7.6875,3.6015 v 80.6771 80.6772 h -15 -15 z m -1724.25,-160.5 v -16.875 h 14.625 14.625 v 16.875 16.875 h -14.625 -14.625 z"
    id="path4549"/>
  <path
    id="path4566"
    d="m 649.91443,2394.6715 c -256.16255,-1.1474 -476.63445,-2.113 -489.93755,-2.1458 l -24.1875,-0.06 v -137.5808 c 0,-75.6693 0.2531,-137.7134 0.5625,-137.8755 0.3094,-0.1622 220.7812,0.6382 489.93755,1.7786 590.59047,2.5022 575.87197,2.4624 576.98827,1.5614 0.4877,-0.3937 2.743,-0.9532 5.0117,-1.2434 9.4228,-1.2054 32.7035,-5.7666 43.5238,-8.5272 96.8738,-24.7161 149.9314,-79.7528 165.3211,-171.4881 3.5863,-21.3777 5.2494,-58.9213 3.4605,-78.1209 -5.1167,-54.9148 -30.1506,-93.9979 -82.5554,-128.8858 -15.4105,-10.2594 -28.1947,-17.508 -49.5,-28.0666 -43.4066,-21.5114 -92.9956,-40.7936 -183.375,-71.3033 -111.84187,-37.7548 -176.02757,-63.1732 -238.87497,-94.5975 -163.0438,-81.5235 -238.1569,-176.0918 -260.5425,-328.0259 -5.0405,-34.211 -6.7738,-61.4299 -6.8058,-106.875 -0.026,-37.4163 0.3944,-47.6154 3.0326,-73.5 12.7709,-125.30082 61.8502,-224.75052 145.0675,-293.95136 82.002,-68.1902 196.2456,-107.331 340.49817,-116.6576 10.1063,-0.6534 27.4875,-1.8925 38.625,-2.7536 18.0208,-1.3932 23.5939,-1.5073 50.625,-1.0371 16.7063,0.2906 35.4375,0.8767 41.625,1.3024 7.3737,0.5072 129.5824,0.8778 354.6824,1.0755 l 343.4323,0.3017 -10.8466,11.0475 c -61.9161,63.0628 -110.9181,147.12994 -143.6013,246.36004 l -4.3847,13.3125 H 1427.493 c -282.1615,0 -330.2036,0.1524 -330.2036,1.0475 0,0.7479 -1.8772,1.3067 -6.5625,1.9534 -13.1435,1.8142 -30.9354,5.2775 -44.1717,8.5982 -113.63947,28.5098 -169.48617,100.99872 -163.77397,212.57862 1.7507,34.1955 7.7509,59.9608 19.4916,83.6973 9.3764,18.9564 19.2282,32.2673 36.1237,48.8069 22.7976,22.3174 50.5548,40.7934 91.76787,61.0836 46.5356,22.9105 95.8351,42.1629 190.125,74.2473 179.5603,61.0999 278.7582,105.924 345.629,156.1776 83.538,62.7792 123.9277,139.2257 135.8149,257.0596 2.6474,26.2421 3.3767,43.6195 3.3527,79.875 -0.053,79.0948 -7.2429,140.6976 -23.5224,201.5167 -13.0575,48.7824 -33.8535,95.2425 -59.3568,132.6083 -25.9416,38.008 -59.529,71.0024 -98.6559,96.9145 -32.5149,21.5332 -66.1977,37.5952 -108.2615,51.6256 -42.4442,14.1573 -89.0932,24.1246 -141.75,30.287 -23.3758,2.7357 -37.1274,3.85 -75.1875,6.0922 -7.8822,0.4644 -8.0625,0.5153 -8.0625,2.2779 v 1.8028 l -37.3125,-0.1043 c -20.5219,-0.057 -246.89997,-1.043 -503.06247,-2.1903 z m 1687.49997,-502.532 c -120.4938,-6.7488 -212.9385,-36.2498 -286.5,-91.4277 -58.5964,-43.9528 -104.5256,-107.469 -134.8462,-186.481 -25.3392,-66.0313 -41.587,-146.1571 -48.1123,-237.2647 -2.7416,-38.2781 -3.0413,-48.8353 -3.0239,-106.5 0.019,-61.0463 0.4752,-73.655 4.1418,-114.375 19.8185,-220.09742 98.3282,-378.09652 230.9656,-464.81366 47.428,-31.0079 102.2666,-52.8655 163.125,-65.0183 35.1416,-7.0175 67.4448,-10.2882 109.125,-11.049 72.2735,-1.3193 142.8131,7.6949 200.5927,25.6335 58.914,18.2908 107.225,44.0652 151.1989,80.6663 12.0026,9.9902 36.4339,34.42354 46.4339,46.43764 53.7076,64.5253 88.8904,144.7984 106.8411,243.76852 5.8736,32.3838 10.4441,71.9431 12.0446,104.25 0.8093,16.3361 1.187,19.5 2.3278,19.5 0.9102,0 1.061,16.7232 1.061,117.6311 v 117.6312 l -14.7456,0.4938 c -8.1101,0.2717 -176.1851,0.4939 -373.5,0.4939 h -358.7544 l 0.011,6.5625 c 0.044,25.013 4.8702,63.2322 11.2658,89.2187 24.2332,98.4642 86.3711,156.3866 186.4309,173.7831 5.8209,1.012 14.6592,2.2687 19.6405,2.7926 7.602,0.7995 9.1136,1.1687 9.4089,2.2978 0.3375,1.2905 11.0636,1.3453 263.297,1.3453 h 262.9452 v 121.8479 121.848 l -232.6875,0.4051 c -127.9781,0.2228 -251.7562,0.5282 -275.0625,0.6788 -23.3062,0.1505 -47.4375,-0.01 -53.625,-0.3564 z m 278.3892,-755.3609 c -2.4223,-112.0855 -26.8243,-188.45842 -74.7853,-234.06122 -35.531,-33.7842 -82.4843,-50.5337 -147.7289,-52.699 -45.6043,-1.5135 -89.0956,6.5042 -122.625,22.6065 -19.6342,9.4292 -34.1446,19.7947 -50.2983,35.9304 -16.4445,16.4263 -27.9706,32.5152 -38.8857,54.2793 -22.8294,45.52042 -35.8741,107.11432 -37.7127,178.06902 l -0.4615,17.8125 h 236.4858 236.4857 z M 135.78938,1240.0911 V 629.21604 h 139.5 139.5 v 610.87506 610.875 h -139.5 -139.5 z"
    style="fill:#005189;fill-opacity:1;stroke-width:0.75"/>
  <path
    id="path4568"
    d="m 1953.7894,2807.1172 c -18.7633,-3.0639 -34.644,-15.5766 -41.649,-32.816 -5.6366,-13.8718 -6.7329,-31.1701 -2.9226,-46.1152 3.9264,-15.4001 15.3456,-27.8205 31.5396,-34.3049 9.4246,-3.7738 18.0431,-5.1608 52.407,-8.4342 l 33,-3.1435 0.2063,-11.7513 c 0.4552,-25.923 -6.0367,-37.3825 -23.5285,-41.5326 -8.3606,-1.9836 -40.3253,-0.6188 -73.6601,3.145 -5.9029,0.6665 -10.8378,1.0914 -10.9666,0.9442 -0.1288,-0.1471 -0.4703,-5.7093 -0.7591,-12.3602 l -0.5251,-12.0927 1.7416,-0.4367 c 2.7335,-0.6856 28.2176,-4.0276 41.8665,-5.4905 8.0891,-0.867 18.4792,-1.3351 30,-1.3516 15.9266,-0.023 18.2755,0.1396 24.375,1.6856 24.4274,6.1912 36.9367,21.7753 40.0757,49.9261 0.4898,4.3927 0.7993,27.4827 0.7993,59.6323 v 52.4641 l 2.4591,4.753 c 3.1641,6.1155 8.2655,9.8144 16.1303,11.6958 l 5.4645,1.3072 -0.3792,2.625 c -0.2085,1.4438 -0.6039,7.1398 -0.8784,12.6578 l -0.4993,10.0328 -7.211,-0.5162 c -15.2048,-1.0883 -25.344,-4.3987 -34.211,-11.1696 l -5.25,-4.009 -5.2228,2.1507 c -23.874,9.831 -55.415,15.2785 -72.4022,12.5046 z m 32.1104,-25.7895 c 9.5913,-1.3377 23.6868,-4.6796 33.5925,-7.9642 l 7.0471,-2.3368 v -32.9513 -32.9512 l -3.1875,0.4138 c -1.7531,0.2276 -14.4937,1.2698 -28.3125,2.3159 -13.8187,1.0461 -27.5278,2.3685 -30.4645,2.9388 -9.8853,1.9193 -18.3803,7.3538 -22.5093,14.3994 -8.2771,14.1237 -6.5217,35.9563 3.8666,48.0918 2.8528,3.3326 7.5709,6.4689 12.2404,8.1369 3.7688,1.3463 17.7438,1.2993 27.7272,-0.093 z m 447.1396,25.8206 c -15.2862,-1.9678 -29.1525,-9.4141 -38.1256,-20.4737 -13.989,-17.2416 -20.5132,-42.9825 -20.5514,-81.0835 -0.041,-40.7594 7.7897,-66.5632 25.6253,-84.4426 18.9159,-18.9624 46.1409,-24.1541 89.6767,-17.101 4.95,0.802 9.5906,1.6407 10.3125,1.8639 1.2398,0.3833 1.3125,-2.0492 1.3125,-43.8947 v -44.3006 h 14.625 14.625 v 143.25 143.25 h -14.625 -14.625 v -6.0803 c 0,-4.5857 -0.2305,-5.9781 -0.9375,-5.6649 -30.2962,13.4223 -47.6568,17.2078 -67.3125,14.6774 z m 33.282,-27.6906 c 8.2231,-1.7921 21.6726,-6.2476 29.7163,-9.8442 l 5.2517,-2.3482 v -68.0726 -68.0726 l -4.6875,-0.8149 c -19.2826,-3.352 -44.4283,-4.3473 -53.0625,-2.1002 -20.9696,5.4575 -32.8234,20.7232 -37.9602,48.8861 -1.74,9.5399 -2.0062,45.0032 -0.4136,55.0924 4.639,29.3872 15.4477,44.4598 34.9988,48.805 4.6502,1.0336 17.9666,0.2542 26.157,-1.5308 z m 666.843,27.6576 c -11.046,-1.3908 -21.9954,-4.9303 -30.187,-9.7583 -6.5002,-3.831 -16.6197,-14.2155 -20.7234,-21.2659 -6.2259,-10.6966 -10.4625,-23.7953 -12.9782,-40.125 -1.9061,-12.3731 -1.9141,-46.3384 -0.013,-58.3529 8.0171,-50.6855 35.1773,-76.5706 80.4023,-76.6278 22.2485,-0.028 39.664,6.0003 52.5838,18.2021 9.1881,8.6775 14.761,17.7879 19.0826,31.1956 3.9981,12.4039 5.4143,22.5746 5.4942,39.458 0.039,8.25 -0.2067,17.6156 -0.5463,20.8125 l -0.6172,5.8125 h -64.1576 -64.1577 l 0.5197,7.6875 c 0.728,10.7689 1.7848,17.2333 3.954,24.1875 5.6284,18.0437 16.7242,28.8051 33.3631,32.3577 6.9064,1.4746 38.3139,1.0528 65.7005,-0.8822 10.0205,-0.7081 18.3503,-1.1561 18.5107,-0.9957 0.1603,0.1603 0.3664,5.3493 0.4577,11.5308 l 0.1662,11.2394 -9.3019,1.2745 c -30.8236,4.2234 -63.5273,6.0156 -77.5518,4.2497 z m 64.5535,-122.3367 c -2.1206,-34.7763 -12.1532,-51.596 -34.1785,-57.2998 -6.602,-1.7097 -21.0715,-1.7098 -28.0497,-10e-5 -16.7776,4.1106 -29.0278,16.6889 -34.21,35.1262 -2.0751,7.3827 -3.7305,18.5374 -3.7359,25.1737 l -0.01,5.4375 h 50.3466 50.3464 l -0.5145,-8.4375 z m 155.3776,122.3666 c -31.9313,-3.554 -51.3621,-19.6643 -59.7223,-49.5164 -3.8418,-13.718 -6.0842,-34.2687 -6.0832,-55.7501 0,-59.2903 17.1508,-89.3259 56.171,-98.3874 15.0568,-3.4966 39.372,-3.097 67.2034,1.1043 l 8.25,1.2455 v 12.1266 c 0,6.6696 -0.2014,12.3272 -0.4474,12.5724 -0.2461,0.2452 -5.9836,-0.1219 -12.75,-0.8159 -7.4898,-0.768 -18.7575,-1.2637 -28.8026,-1.2671 -14.5123,-0.01 -17.1954,0.1863 -22.2724,1.5859 -19.5246,5.3822 -29.799,17.0098 -34.2941,38.8106 -4.5047,21.8476 -3.3857,60.3825 2.292,78.9319 3.9265,12.8278 11.679,22.6037 21.7766,27.4606 9.918,4.7703 13.7006,5.3556 33.9979,5.2615 10.3642,-0.048 22.7707,-0.5801 29.246,-1.254 6.1852,-0.6438 11.3171,-1.0994 11.4042,-1.0124 0.087,0.087 0.4263,5.7614 0.754,12.6097 l 0.5958,12.4515 -3.75,0.4672 c -28.6457,3.5694 -51.1105,4.7622 -63.5689,3.3756 z m 179.4439,-0.269 c -10.0628,-2.1534 -15.9097,-5.0255 -21.9398,-10.7772 -5.5418,-5.2859 -8.8871,-10.7887 -11.7451,-19.3192 -4.8126,-14.3645 -4.8276,-14.6085 -5.1245,-83.3762 l -0.2696,-62.4375 h -13.8355 -13.8355 v -13.125 -13.125 h 13.875 13.875 v -30.375 -30.375 h 14.625 14.625 v 30.375 30.375 h 30 30 v 13.125 13.125 h -30 -30 l 0.01,51.1875 c 0.01,65.6012 0.7707,76.6582 6.0217,87.3483 2.6496,5.3941 6.2394,8.6575 11.5729,10.5208 3.1116,1.087 6.0112,1.2917 16.5238,1.1663 7.0125,-0.084 15.9563,-0.4706 19.875,-0.8599 3.9188,-0.3892 7.1726,-0.6582 7.2308,-0.5979 0.578,0.6003 1.3584,24.2148 0.8122,24.5787 -0.3868,0.2579 -4.8016,1.0511 -9.8107,1.7628 -12.2626,1.7422 -35.9977,2.1911 -42.4823,0.8035 z m 334.125,0.5872 c -6.0394,-0.5043 -17.3908,-2.739 -22.7156,-4.4719 -10.8932,-3.5449 -19.2545,-8.7979 -26.4774,-16.6343 -10.9554,-11.886 -17.3139,-28.0034 -20.6194,-52.2661 -1.8859,-13.8431 -1.9253,-48.8386 -0.069,-61.3262 3.6761,-24.7286 10.0449,-39.525 22.19,-51.553 9.7344,-9.6406 19.652,-14.714 35.3745,-18.0962 6.6015,-1.4201 10.2073,-1.6888 23.1918,-1.7281 16.8744,-0.051 22.4336,0.6474 33.2937,4.1828 35.7819,11.6484 52.3203,46.1726 50.4289,105.2707 -1.3423,41.9416 -10.0036,66.1886 -29.1392,81.5746 -14.3717,11.5556 -39.128,17.2466 -65.4584,15.0477 z m 28.7429,-26.8514 c 20.8737,-5.0804 31.2936,-20.5321 34.6409,-51.3692 1.2668,-11.6708 1.0779,-40.6398 -0.3334,-51.1283 -3.8623,-28.7035 -15.2987,-44.4989 -36.0504,-49.7905 -7.2531,-1.8495 -22.6162,-1.8813 -30.75,-0.064 -21.6016,4.8273 -32.2837,19.039 -36.076,47.9966 -1.597,12.1947 -1.1216,50.4702 0.7602,61.2091 4.8464,27.6548 16.334,40.7004 38.9217,44.2002 6.2958,0.9755 23.0613,0.3636 28.887,-1.0543 z m 546.5071,26.5865 c -42.9133,-4.8657 -61.7402,-29.1821 -65.6038,-84.7324 -3.9613,-56.9561 7.3772,-94.5262 33.2348,-110.1229 19.4725,-11.7454 42.6582,-13.9891 85.3553,-8.2596 6.455,0.8661 12.035,1.7847 12.3999,2.0411 0.365,0.2565 0.5317,5.993 0.3705,12.7476 l -0.2929,12.2814 -3.8569,-0.4527 c -14.5341,-1.706 -34.9829,-2.8546 -43.9819,-2.4706 -12.4792,0.5326 -18.868,1.8838 -26.625,5.6311 -13.3596,6.4538 -20.209,16.577 -24.5249,36.2472 -1.5719,7.1642 -1.6964,9.5511 -1.6947,32.4824 0,20.0582 0.2457,26.1228 1.2882,31.992 4.702,26.4724 14.7721,39.1537 35.4314,44.6192 8.6022,2.2756 43.5579,1.7453 61.2407,-0.9292 l 2.7407,-0.4146 0.421,6.2413 c 0.2315,3.4327 0.5817,9.1497 0.7782,12.7045 l 0.3574,6.4632 -3.894,0.4847 c -28.4566,3.5423 -51.3016,4.7892 -63.144,3.4463 z m 526.8763,-0.078 c -38.2883,-4.4311 -59.1845,-29.4062 -64.5541,-77.1545 -1.1571,-10.2893 -1.1632,-37.3474 -0.011,-46.875 6.7634,-55.9074 36.18,-83.989 85.7967,-81.9031 11.6957,0.4916 21.041,2.4454 30.2948,6.3335 30.0869,12.6411 45.3092,47.3937 42.0531,96.0071 l -0.8666,12.9375 h -63.9823 -63.9823 v 5.0821 c 0,2.7953 0.348,7.9422 0.7732,11.4375 3.3122,27.2209 15.4011,42.9685 36.6076,47.6865 4.8481,1.0785 8.6719,1.198 26.7013,0.8345 11.5736,-0.2334 29.0775,-0.9941 38.8976,-1.6903 9.8201,-0.6962 17.9757,-1.1443 18.1236,-0.9956 0.1478,0.1486 0.5103,5.3489 0.8054,11.5559 l 0.5364,11.2857 -10.035,1.288 c -34.1001,4.3768 -62.2345,5.8975 -77.1588,4.1702 z m 64.4987,-120.1116 c 0,-13.7487 -2.9177,-28.2772 -7.6399,-38.0429 -5.3583,-11.0807 -13.9809,-18.1567 -26.1101,-21.4263 -6.6101,-1.7819 -21.7558,-1.8202 -28.5,-0.072 -23.5586,6.1065 -35.318,24.4542 -37.9333,59.1858 l -0.4941,6.5625 h 50.3387 50.3387 z m 631.875,120.1551 c -9.1936,-1.0996 -20.3584,-4.1342 -27,-7.3387 -12.6746,-6.1154 -20.396,-13.9733 -27.0071,-27.4843 -8.8322,-18.0504 -12.0679,-39.422 -11.4275,-75.4777 0.2972,-16.7262 0.673,-22.2564 2.032,-29.8973 6.6482,-37.3796 23.6529,-56.9789 55.5276,-64.0001 6.1044,-1.3446 9.596,-1.5669 24.375,-1.5515 16.5027,0.017 25.2819,0.7636 45.7499,3.8899 l 3.75,0.5728 -0.146,12.2528 c -0.08,6.7391 -0.285,12.3927 -0.456,12.5636 -0.171,0.1709 -6.012,-0.2636 -12.979,-0.9655 -7.574,-0.7628 -19.154,-1.2801 -28.7939,-1.2862 -14.301,-0.01 -16.8037,0.1761 -22.125,1.6364 -9.5083,2.6093 -15.0702,5.7042 -21.0277,11.7006 -12.2682,12.3485 -16.8493,31.7676 -15.8499,67.1872 0.8928,31.6451 5.3352,47.721 16.1893,58.5866 5.5989,5.6049 11.5133,8.9345 20.2057,11.3754 5.1809,1.4547 7.501,1.6047 24.1076,1.5582 11.0229,-0.031 22.8749,-0.5219 29.6209,-1.2273 6.185,-0.6469 11.296,-1.1179 11.358,-1.047 0.06,0.071 0.355,5.7331 0.653,12.5824 l 0.541,12.4534 -7.024,0.901 c -24.848,3.188 -48.8089,4.3866 -60.2739,3.0153 z m 188.8409,0.034 c -15.648,-1.9864 -27.637,-6.8721 -38.41,-15.6523 -8.451,-6.8879 -17.46,-21.8933 -21.437,-35.7052 -6.621,-22.9898 -8.014,-57.6473 -3.357,-83.5082 6.77,-37.5999 25.921,-60.8738 56.613,-68.803 5.819,-1.5033 10.022,-2.0241 18.75,-2.3238 24.895,-0.8546 43.867,5.3504 57.74,18.885 6.136,5.9859 9.042,10.0143 13.148,18.2272 8.381,16.7649 12.058,40.5946 10.205,66.1478 l -0.843,11.625 -63.937,0.1917 -63.938,0.1917 0.01,6.1833 c 0.02,25.3517 9.758,45.8413 25.548,53.7444 10.026,5.0183 14.269,5.5868 38.142,5.1106 11.374,-0.2268 28.879,-0.991 38.9,-1.698 10.02,-0.7071 18.333,-1.1592 18.471,-1.0047 0.139,0.1545 0.492,5.3718 0.784,11.594 l 0.532,11.313 -16.753,1.9871 c -9.214,1.093 -20.635,2.3312 -25.378,2.7518 -12.519,1.1098 -38.498,1.5406 -44.784,0.7426 z m 64.284,-119.9441 c 0,-8.9726 -2.012,-22.5266 -4.493,-30.2732 -5.215,-16.28 -14.918,-25.9085 -29.717,-29.4888 -6.881,-1.6647 -21.398,-1.6776 -28.222,-0.025 -17.885,4.3307 -29.78,17.5135 -34.965,38.7486 -1.472,6.0291 -3.103,18.8835 -3.103,24.4545 v 2.5455 h 50.25 50.25 z m 144,119.9191 c -14.348,-1.2638 -50.739,-6.1965 -51.527,-6.9843 -0.237,-0.237 1.307,-23.9791 1.578,-24.2652 0.09,-0.092 6.552,0.6516 14.366,1.652 26.734,3.4225 39.429,4.3289 54.708,3.9066 20.094,-0.5555 28.565,-3.0196 35.756,-10.4009 6.063,-6.2248 9.12,-18.3605 7.451,-29.5826 -2.307,-15.5128 -9.541,-19.5313 -47.707,-26.5018 -38.432,-7.019 -54.594,-14.884 -62.842,-30.5802 -7.8,-14.843 -7.298,-37.5461 1.191,-53.8261 3.136,-6.0142 12.937,-15.8191 19.401,-19.408 6.317,-3.5073 14.936,-6.6556 23.125,-8.4473 8.547,-1.8699 35.103,-1.8724 51.375,-0.01 10.532,1.2087 34.154,4.6359 37.5,5.4407 1.436,0.3454 1.49,0.8786 1.259,12.5067 -0.133,6.6803 -0.302,12.2051 -0.375,12.2775 -0.07,0.072 -5.021,-0.5191 -10.995,-1.3141 -34.918,-4.6477 -61.534,-5.8923 -72.366,-3.384 -8.211,1.9013 -13.583,4.5973 -18.095,9.0813 -5.398,5.3651 -7.246,10.4575 -7.348,20.2521 -0.07,6.7824 0.123,7.9093 2.022,11.778 4.797,9.7725 14.406,13.8249 46.648,19.6728 17.56,3.185 26.776,5.42 35.766,8.6739 15.734,5.6947 25.5,15.1272 29.395,28.3891 3.003,10.2267 3.03,28.4 0.06,40.0578 -4.722,18.5243 -18.323,31.7588 -38.594,37.5539 -12.013,3.4345 -34.758,4.9539 -51.75,3.457 z m -1323.7499,-0.4338 c -27.9019,-2.4183 -60.0269,-6.0724 -60.8293,-6.9192 -0.465,-0.4907 1.2777,-25.5529 1.8141,-26.0893 0.1631,-0.1631 8.5301,0.5542 18.5934,1.594 38.585,3.9865 62.7771,5.0598 75.43,3.3463 7.8735,-1.0662 19.1457,-4.9817 24.4196,-8.4823 8.2531,-5.4783 14.5221,-14.6293 17.5362,-25.5982 1.6106,-5.8611 2.2706,-24.8032 1.0663,-30.604 -2.9131,-14.0321 -13.6233,-23.607 -34.5303,-30.87 -4.3312,-1.5046 -15.6754,-4.7241 -25.2091,-7.1545 -21.5528,-5.4942 -33.5268,-9.4521 -44.2341,-14.6208 -28.0988,-13.5643 -38.5999,-32.5668 -37.6195,-68.0753 0.4311,-15.6142 2.2608,-23.7005 7.7967,-34.4579 2.8771,-5.5906 4.9251,-8.3165 10.3633,-13.7934 10.1793,-10.2516 20.8434,-15.8458 37.0568,-19.4392 19.3455,-4.2875 38.5059,-4.3663 76.2209,-0.3136 13.3442,1.434 34.1683,4.247 34.5945,4.6732 0.1811,0.1811 -1.2985,26.3205 -1.499,26.4828 -0.052,0.043 -7.0142,-0.6848 -15.4705,-1.6162 -42.0841,-4.6349 -67.8569,-5.6166 -80.625,-3.071 -25.5378,5.0917 -38.6352,20.0218 -38.5858,43.9849 0.042,20.2387 6.7755,32.0436 23.0124,40.343 9.5994,4.9066 16.8805,7.3262 39.9484,13.2754 32.0348,8.2618 47.9962,14.5691 58.8665,23.262 17.3239,13.8538 23.7773,34.4516 20.5926,65.7276 -2.5246,24.7946 -10.5567,41.6833 -25.0841,52.7439 -6.3421,4.8286 -13.6614,8.5621 -21.8448,11.143 -11.6833,3.6846 -17.946,4.4303 -38.9052,4.6329 -10.725,0.1036 -21.0187,0.057 -22.875,-0.1041 z m -2592,-102.2737 v -99.75 h 14.625 14.625 v 6.6979 6.6978 l 8.4375,-3.997 c 16.9415,-8.0255 32.2374,-12.2065 47.2429,-12.9135 29.1301,-1.3724 48.3299,7.9866 58.2529,28.3957 9.7032,19.9569 11.2512,37.0828 11.2931,124.9316 l 0.024,49.6875 h -14.5575 -14.5575 l -0.3428,-63.9375 c -0.3591,-66.9674 -0.5772,-71.673 -3.9208,-84.5765 -3.829,-14.7764 -11.5043,-23.2721 -24.0526,-26.6234 -6.7,-1.7895 -21.2733,-1.6187 -31.0688,0.3642 -8.9161,1.8047 -22.7153,6.292 -31.1014,10.1137 l -5.6486,2.5742 v 81.0426 81.0427 h -14.625 -14.625 v -99.75 z m 583.5,-39 v -138.75 h 81.75 81.75 v 13.875 13.875 h -66.75 -66.75 v 47.625 47.625 h 54.75 54.75 v 13.875 13.875 h -54.75 -54.75 v 49.125 49.125 h 66.75 66.75 v 14.25 14.25 h -81.75 -81.75 z m 237,-4.5 v -143.25 h 14.625 14.625 v 143.25 143.25 h -14.625 -14.625 z m 682.5,43.5 v -99.75 h 15 15 v 13.2112 13.2113 l 2.0625,-1.3649 c 19.9934,-13.2317 38.7533,-22.1571 56.6458,-26.9508 3.8041,-1.0191 7.0011,-1.8539 7.1042,-1.8549 0.1031,0 0.1875,6.8611 0.1875,15.2493 v 15.2511 l -9.0349,2.3846 c -13.8572,3.6573 -26.7039,8.6816 -42.3401,16.559 l -14.25,7.1791 -0.1912,73.3125 -0.1911,73.3125 h -14.9964 -14.9963 z m 388.5,0 v -99.75 h 14.625 14.625 v 6.7057 6.7057 l 8.4375,-4.0476 c 16.351,-7.8436 32.2253,-12.171 47.2429,-12.8786 28.6214,-1.3484 48.0156,7.8886 57.7705,27.5148 5.6235,11.3143 8.6439,23.9984 10.269,43.125 0.4395,5.1728 0.768,35.2324 0.7724,70.6875 l 0.01,61.6875 h -14.1794 -14.1793 l -0.3686,-63.5625 c -0.2403,-41.4218 -0.6699,-65.9137 -1.2336,-70.3125 -3.2355,-25.255 -10.8581,-37.0261 -26.7203,-41.2624 -6.7105,-1.7922 -21.2773,-1.6191 -31.0688,0.3693 -9.168,1.8617 -22.649,6.229 -30.9375,10.0225 l -5.8125,2.6603 v 81.0426 81.0427 h -14.625 -14.625 v -99.75 z m 237,0 v -99.75 h 14.25 14.25 v 99.75 99.75 h -14.25 -14.25 z m 859.5,0 v -99.75 h 14.625 14.625 v 13.125 c 0,7.2188 0.2213,13.125 0.4917,13.125 0.2705,0 1.5361,-0.7909 2.8125,-1.7575 7.5953,-5.7517 24.8897,-15.0532 37.8854,-20.3758 6.8181,-2.7925 22.9053,-7.8667 24.9405,-7.8667 0.3409,0 0.6199,6.8908 0.6199,15.3128 v 15.3129 l -3.9375,0.8284 c -15.6796,3.2989 -38.0456,12.0831 -55.875,21.9447 l -6.9375,3.8371 v 73.0071 73.007 h -14.625 -14.625 z m 189.75,99.4592 c 0,-0.1696 -12.3187,-44.8986 -27.375,-99.3977 -15.0562,-54.4991 -27.375,-99.2518 -27.375,-99.4504 0,-0.1986 6.8517,-0.3611 15.226,-0.3611 h 15.226 l 23.131,86.4375 c 12.7221,47.5406 23.2877,86.8594 23.4793,87.375 0.2423,0.6523 2.3503,0.9375 6.9305,0.9375 5.6345,0 6.633,-0.189 6.9347,-1.3125 0.1938,-0.7219 10.9177,-40.0406 23.8308,-87.375 l 23.4783,-86.0625 h 14.8818 c 11.4176,0 14.8762,0.2183 14.8585,0.9375 -0.013,0.5156 -12.4503,45.3188 -27.6391,99.5625 l -27.6161,98.625 -28.9858,0.1963 c -15.9423,0.108 -28.9859,0.058 -28.9859,-0.1121 z m 174,-99.4592 v -99.75 h 14.625 14.625 v 99.75 99.75 h -14.625 -14.625 z m -1223.25,-160.5 v -17.25 h 14.25 14.25 v 17.25 17.25 h -14.25 -14.25 z m 1223.25,0 v -17.25 h 14.625 14.625 v 17.25 17.25 h -14.625 -14.625 z m -990,-131.2354 c 0,-0.6627 24.4596,-84.5838 25.3065,-86.8271 0.2754,-0.7294 -2.7897,-0.9375 -13.8082,-0.9375 h -14.1622 l -27.2761,-98.0625 c -15.0019,-53.9344 -27.4356,-98.6531 -27.6305,-99.375 -0.3287,-1.2173 0.7084,-1.3125 14.2999,-1.3125 h 14.6543 l 0.7753,2.4375 c 1.2799,4.0243 47.341,167.6171 47.341,168.1388 0,0.2652 2.949,0.3845 6.5534,0.2654 l 6.5535,-0.2167 23.3853,-82.125 c 12.862,-45.1688 23.7554,-83.5594 24.2074,-85.3125 l 0.822,-3.1875 h 14.6955 14.6955 l -0.5054,2.0625 c -0.278,1.1344 -18.5396,65.5943 -40.5813,143.2441 -22.0418,77.6499 -40.0759,141.353 -40.0759,141.5625 0,0.2095 -6.5812,0.3809 -14.625,0.3809 -9.0571,0 -14.625,-0.28 -14.625,-0.7354 z m -2023.5,-84.0101 c -42.2923,-3.5004 -63.4293,-24.498 -70.1264,-69.6641 -1.8317,-12.3524 -2.6793,-34.785 -1.8567,-49.1318 1.233,-21.5036 4.2296,-35.7694 10.1555,-48.3466 6.9747,-14.8031 15.8357,-24.0596 29.1843,-30.4868 13.5218,-6.5105 24.2621,-8.6266 43.7601,-8.6216 25.3425,0.01 42.9352,5.7899 56.4797,18.5671 6.6904,6.3114 11.0169,12.3543 15.2436,21.2913 7.1088,15.0306 10.0927,30.5219 10.6995,55.5471 1.5043,62.0464 -13.7619,95.0323 -49.332,106.5924 -11.3854,3.7002 -29.6532,5.4576 -44.2076,4.253 z m 28.2326,-27.0395 c 11.821,-3.0055 20.7188,-9.8214 25.8992,-19.8394 5.5855,-10.8015 7.7302,-20.8447 9.0096,-42.1886 1.4317,-23.8869 -0.5301,-45.9264 -5.3077,-59.6267 -5.5765,-15.9914 -15.9105,-26.1418 -30.8337,-30.2856 -7.5468,-2.0956 -26.1127,-1.9156 -33.9924,0.3296 -15.497,4.4157 -24.3855,13.0521 -29.5917,28.7526 -4.2817,12.9125 -4.9893,19.3017 -5.0137,45.2687 -0.023,24.1588 0.5271,31.0555 3.4377,43.125 3.0797,12.771 10.0295,23.7237 18.4818,29.1269 10.8322,6.9245 32.2738,9.3132 47.9109,5.3375 z m 694.6251,27.0034 c -12.7824,-1.4906 -22.9447,-6.4447 -32.1381,-15.6671 -5.2823,-5.299 -7.0215,-7.675 -9.9182,-13.5507 -6.2951,-12.7691 -8.5276,-27.8417 -6.287,-42.447 2.8248,-18.4139 11.5002,-31.0381 26.7016,-38.8556 12.5735,-6.4661 19.1282,-7.7648 57.034,-11.3001 15.4688,-1.4427 29.772,-2.835 31.7851,-3.094 l 3.6601,-0.4709 -0.4134,-13.6037 c -0.4194,-13.7992 -1.1042,-17.915 -4.0731,-24.4826 -3.4476,-7.6264 -11.0197,-13.2236 -20.3506,-15.043 -8.794,-1.7147 -43.6188,-0.099 -73.915,3.4304 -5.3251,0.6202 -9.7968,1.0128 -9.9373,0.8723 -0.1404,-0.1405 -0.4743,-5.807 -0.7419,-12.5922 l -0.4866,-12.3368 14.9239,-2.0278 c 29.4566,-4.0025 37.2105,-4.6193 58.0488,-4.6171 18.1722,0 20.3891,0.1439 25.875,1.6557 17.825,4.9126 29.0496,14.8285 34.8851,30.8179 4.6374,12.7069 4.6591,13.0318 5.0235,74.9543 0.3594,61.0531 0.1627,58.2675 4.5386,64.2866 2.5374,3.4902 9.0429,7.2039 15.0814,8.6093 l 4.0287,0.9376 -0.4977,10.5909 c -0.2739,5.8249 -0.6719,11.4857 -0.8846,12.5794 l -0.3867,1.9886 -6.1441,-0.3735 c -14.7525,-0.8966 -26.6349,-4.8251 -35.705,-11.8044 l -4.3892,-3.3774 -6.3932,2.578 c -15.9132,6.4167 -35.6965,11.0906 -52.2818,12.3516 -5.5687,0.4234 -10.4625,0.7263 -10.875,0.6731 -0.4125,-0.053 -3.0078,-0.36 -5.7673,-0.6818 z m 28.0414,-25.8426 c 10.9466,-1.4527 21.9736,-3.9919 33.2259,-7.6512 l 9,-2.9269 0.1954,-32.7735 c 0.1539,-25.8194 0,-32.7736 -0.7419,-32.7736 -5.5422,0 -59.1242,4.8366 -62.6888,5.6586 -17.0613,3.9344 -26.3637,16.3604 -26.3637,35.2164 0,16.9514 8.2041,30.4883 21.1989,34.9784 4.9242,1.7015 14.6404,1.8024 26.1742,0.2718 z m 203.4759,25.5642 c -22.3726,-4.3876 -32.9681,-16.5247 -38.3584,-43.9394 -1.0947,-5.5673 -1.2913,-14.3804 -1.5527,-69.5625 l -0.2992,-63.1875 h -13.8324 -13.8323 v -12.75 -12.75 h 13.875 13.875 v -30.75 -30.75 h 14.625 14.625 v 30.75 30.75 h 30 30 v 12.75 12.75 h -30 -30 l 0.011,51.1875 c 0.016,74.4334 0.9745,83.5924 9.742,93.104 4.9352,5.3541 9.2931,6.6786 21.7469,6.6096 5.5687,-0.031 14.468,-0.4312 19.7762,-0.8899 5.3081,-0.4586 9.7382,-0.7331 9.8446,-0.61 0.2529,0.2924 1.7516,24.1642 1.533,24.418 -0.092,0.1069 -4.8611,0.8826 -10.5981,1.7238 -13.499,1.9796 -34.0195,2.5509 -41.1807,1.1464 z m 289.125,0.5909 c -19.0426,-1.2381 -34.8302,-6.2584 -46.1527,-14.6759 -9.5541,-7.1029 -17.1724,-18.5585 -21.9335,-32.9815 -3.9587,-11.9924 -5.9924,-24.4038 -7.0627,-43.1036 -1.9793,-34.5798 2.7099,-64.4418 12.9405,-82.4095 6.387,-11.2171 17.934,-21.5449 29.6699,-26.5371 12.4054,-5.2771 25.2094,-7.1736 44.5288,-6.5954 20.5414,0.6147 32.049,3.7519 44.742,12.1976 17.4861,11.6348 27.9087,31.0925 32.3135,60.3251 1.8508,12.2828 1.8079,47.5972 -0.074,60.375 -3.6941,25.0918 -9.8639,40.1761 -21.433,52.4005 -12.8311,13.5578 -29.7382,19.9386 -55.5396,20.961 -4.3312,0.1716 -9.7312,0.1914 -12,0.044 z m 23.625,-26.9572 c 7.6536,-1.534 15.4776,-5.6557 20.5877,-10.8456 11.4228,-11.6016 15.937,-29.8685 16.0268,-64.8525 0.05,-19.4672 -0.7971,-28.7136 -3.6668,-40.0289 -4.0814,-16.0928 -12.3888,-27.5892 -23.8902,-33.0609 -8.787,-4.1802 -12.6338,-4.9142 -25.5575,-4.8762 -12.7194,0.037 -17.5127,0.9841 -26.5157,5.2362 -12.5137,5.9103 -19.9045,17.9156 -23.8877,38.8021 -1.9637,10.2968 -1.9484,53.5526 0.023,65.4277 4.8764,29.3722 17.3834,42.7263 42.5054,45.3842 6.8951,0.7295 17.357,0.2204 24.375,-1.1861 z m 977.2663,26.6311 c -11.8112,-0.8321 -26.1163,-2.4841 -42.9613,-4.9613 -11.5135,-1.6931 -13.6414,-2.2014 -13.3584,-3.1909 0.1852,-0.6474 0.5696,-5.9934 0.8545,-11.8802 0.2848,-5.8867 0.8035,-10.8796 1.1526,-11.0954 0.3491,-0.2159 7.4774,0.466 15.8406,1.5152 33.7204,4.2302 52.4023,5.0998 65.8894,3.0666 21.0207,-3.1687 29.6262,-11.9736 30.5093,-31.2158 0.9939,-21.6594 -6.5297,-27.1725 -47.068,-34.4903 -31.7821,-5.7372 -46.2226,-11.1746 -56.6402,-21.3271 -8.3708,-8.1578 -12.3598,-19.4448 -12.3598,-34.9726 0,-30.9178 18.5362,-50.8847 52.5125,-56.566 6.3321,-1.0587 10.6502,-1.2128 24.2821,-0.8662 9.1192,0.2318 20.9679,0.9644 26.3304,1.6277 16.3098,2.0177 35.2148,4.9632 35.8479,5.5853 0.3288,0.3231 0.3622,5.8704 0.074,12.3272 -0.4479,10.0399 -0.6973,11.7394 -1.7229,11.7388 -0.6595,-5e-4 -6.2616,-0.6508 -12.4491,-1.4451 -22.6009,-2.9014 -37.0521,-4.0584 -51.375,-4.1134 -13.26,-0.051 -15.2112,0.1109 -20.9053,1.7338 -11.4545,3.2646 -18.7873,9.8622 -21.5594,19.3978 -1.712,5.889 -1.1643,17.4136 1.0275,21.6237 4.6332,8.8994 15.2424,13.3563 44.4372,18.6679 47.6732,8.6735 61.7478,16.9784 68.0197,40.1361 2.0218,7.4651 1.7945,28.2139 -0.3986,36.375 -5.2531,19.548 -17.2941,31.8482 -37.3229,38.1259 -11.8004,3.6987 -31.5742,5.4069 -48.657,4.2033 z m 208.0051,-0.3756 c -22.8042,-4.1274 -33.7544,-17.2932 -38.6361,-46.4536 -1.0823,-6.4651 -1.2983,-15.9608 -1.5653,-68.8125 l -0.3097,-61.3125 h -13.4427 -13.4426 v -12.75 -12.75 h 13.5 13.5 v -30.75 -30.75 h 15 15 v 30.75 30.75 h 29.625 29.625 v 12.75 12.75 h -29.6653 -29.6655 l 0.293,60.9375 c 0.2498,51.971 0.4666,61.71 1.4736,66.1875 3.5984,16.0003 9.0415,22.0029 21.354,23.5489 4.9399,0.6203 23.2855,0.022 33.3166,-1.0851 l 4.2314,-0.4673 0.4393,4.3768 c 0.2415,2.4072 0.6534,7.9679 0.9151,12.3573 l 0.4758,7.9805 -5.1465,0.8423 c -18.742,3.0675 -36.4574,3.7857 -46.8751,1.9002 z m 172.3302,0.373 c -13.3774,-1.1857 -25.6447,-4.9636 -34.3168,-10.5687 -9.8923,-6.3937 -19.2849,-17.5243 -24.2369,-28.7215 -12.9277,-29.2318 -14.2703,-82.0665 -2.9145,-114.6909 5.0035,-14.3748 11.088,-24.0957 20.8447,-33.3033 13.7506,-12.9766 30.5975,-18.9172 53.6469,-18.9172 24.1929,0 42.0126,6.5745 55.2161,20.3717 16.5911,17.3373 24.2745,46.2191 21.8651,82.1908 l -0.8666,12.9375 h -64.0926 -64.0927 l 0.4227,8.8125 c 1.4102,29.3981 12.2287,47.4408 32.305,53.8777 4.8345,1.55 8.1886,2.0461 15.9872,2.3644 9.9372,0.4057 37.3329,-0.6703 60.2558,-2.3666 6.8063,-0.5036 12.4307,-0.8926 12.4986,-0.8644 0.068,0.028 0.3665,5.1614 0.6634,11.4071 l 0.5398,11.3558 -2.1634,0.4395 c -12.1486,2.4681 -63.938,6.9541 -73.4134,6.359 -0.825,-0.052 -4.4917,-0.3593 -8.1484,-0.6834 z m 61.0213,-120.1391 c -0.01,-14.3297 -3.2674,-29.9016 -8.2855,-39.5471 -8.0454,-15.4643 -22.4862,-22.6188 -43.4624,-21.5328 -14.2755,0.739 -24.6829,5.3596 -33.1523,14.7187 -8.8607,9.7913 -13.7162,24.1991 -15.2447,45.2362 l -0.5313,7.3125 h 50.3391 50.3392 v -6.1875 z m 509.1326,120.1436 c -10.4108,-0.6996 -28.2596,-2.8034 -45.3029,-5.3398 l -10.9738,-1.6332 0.4311,-4.554 c 0.237,-2.5048 0.6535,-8.0508 0.9255,-12.3246 l 0.4946,-7.7706 3.46,0.4533 c 44.8563,5.877 69.2551,7.0104 83.5859,3.8832 17.673,-3.8567 25.429,-13.6527 25.568,-32.2954 0.07,-9.4049 -1.112,-13.6103 -5.098,-18.1394 -5.461,-6.2034 -14.172,-9.2865 -39.8459,-14.1026 -35.3755,-6.636 -48.2557,-11.4173 -58.5128,-21.7212 -9.2108,-9.2528 -12.4464,-18.0859 -12.5138,-34.1618 -0.047,-11.2121 1.3152,-18.3131 5.0025,-26.0773 8.2706,-17.4157 25.6769,-28.5344 49.6885,-31.7398 8.2892,-1.1066 34.3525,-0.4944 47.8355,1.1235 14.382,1.7257 35.944,5.0392 36.375,5.5896 0.206,0.2634 0.275,5.9105 0.153,12.549 l -0.222,12.07 -3.903,-0.6238 c -7.695,-1.2297 -36.379,-4.3263 -48.153,-5.198 -25.3365,-1.876 -39.7319,0.8244 -48.7608,9.147 -6.2211,5.7343 -9.2673,14.8017 -8.2771,24.637 0.9238,9.1757 4.6717,14.3382 13.5533,18.6687 6.6015,3.2188 15.5021,5.5287 35.2276,9.1425 17.852,3.2706 24.759,4.8871 33.21,7.7714 12.388,4.2285 21.32,10.1808 26.543,17.6902 9.146,13.1487 10.417,39.3068 2.886,59.4335 -2.213,5.9162 -8.5,14.4202 -13.882,18.7778 -14.266,11.5513 -38.981,16.7952 -69.4944,14.7448 z m -1384.3805,-0.7221 c -19.9627,-1.4949 -59.5608,-6.0448 -60.4632,-6.9472 -0.1936,-0.1937 0.054,-6.2243 0.5507,-13.4014 l 0.9028,-13.0493 15.0674,1.6341 c 51.1225,5.5444 73.6074,5.971 89.0986,1.6904 17.4263,-4.8154 28.5662,-16.2812 32.6298,-33.5843 1.9346,-8.2381 1.8914,-26.5905 -0.076,-32.3263 -4.4347,-12.9278 -14.1575,-20.8548 -34.21,-27.8912 -2.2687,-0.7961 -12.4038,-3.5952 -22.5223,-6.2203 -10.1187,-2.625 -22.2687,-6.0241 -27,-7.5535 -37.1798,-12.0182 -52.5487,-27.7803 -56.6362,-58.085 -4.6868,-34.7471 6.5566,-62.6484 30.8204,-76.4835 7.0843,-4.0394 19.7213,-8.3651 29.9631,-10.2565 10.9395,-2.0202 44.61,-1.8473 64.5,0.3311 18.9712,2.0778 38.272,4.7272 39.3667,5.4037 0.6564,0.4057 0.7453,3.6478 0.3449,12.5831 -0.2965,6.62 -0.7852,12.4344 -1.0858,12.9207 -0.4133,0.6689 -5.0931,0.4115 -19.2111,-1.0566 -52.0367,-5.411 -70.2974,-5.4174 -86.3461,-0.03 -14.8145,4.9731 -24.9414,15.6762 -27.8528,29.4374 -1.198,5.663 -1.0336,20.6137 0.2884,26.2208 2.706,11.4771 9.6583,19.9753 21.1976,25.911 9.1256,4.6941 17.1531,7.3793 38.7982,12.9775 39.3167,10.1687 54.8402,17.0266 66.4857,29.3714 11.0361,11.6989 14.9377,23.8405 14.9287,46.4574 -0.02,48.3655 -19.2374,73.4832 -61.9144,80.9207 -8.0404,1.4013 -34.8894,1.9796 -47.625,1.0258 z m -2377.5,-141.359 v -138.375 h 15.375 15.375 v 138.375 138.375 h -15.375 -15.375 z m 118.5,39 v -99.375 h 15 15 v 6.375 c 0,3.5063 0.1763,6.375 0.3917,6.375 0.2154,0 2.9997,-1.3076 6.1875,-2.9059 7.8623,-3.942 19.0367,-8.0559 29.4208,-10.8314 8.3037,-2.2195 9.1978,-2.3051 24,-2.3006 13.518,0.01 16.0944,0.2037 21.3315,1.6525 18.0948,5.0055 29.4637,15.8933 35.8046,34.2894 2.3964,6.9527 4.5953,16.9597 5.9262,26.971 0.6153,4.6284 0.9972,27.5531 1.215,72.9375 l 0.3178,66.1875 h -14.6725 -14.6726 v -61.2727 c 0,-39.2847 -0.2994,-64.3822 -0.8343,-69.9375 -0.9708,-10.0816 -3.4498,-20.5911 -6.2569,-26.5247 -4.0201,-8.4978 -11.8021,-14.7175 -21.4088,-17.1109 -5.219,-1.3002 -20.276,-1.2851 -27.75,0.028 -8.0349,1.4115 -21.5619,5.609 -30.9375,9.5999 l -8.0625,3.432 v 80.893 80.893 h -15 -15 v -99.375 z m 241.5,12.75 v -86.625 h -12.375 -12.375 v -12.75 -12.75 h 12.375 12.375 v -16.4616 c 0,-45.5838 9.5284,-65.1651 35.1424,-72.2194 4.8511,-1.3361 7.8084,-1.5778 19.2326,-1.5716 11.957,0.01 27.6523,1.0412 33.5625,2.2129 2.0066,0.3978 2.0625,0.5466 2.0625,5.4841 0,2.7913 -0.2152,8.1075 -0.4783,11.8136 l -0.4783,6.7385 -19.9592,-0.061 c -19.4935,-0.059 -20.0516,-0.019 -23.9187,1.7286 -5.0372,2.2764 -10.0822,7.8303 -12.2034,13.4345 -2.6536,7.0107 -3.6404,14.6063 -4.1851,32.2137 l -0.5162,16.6875 h 28.9946 28.9946 v 12.75 12.75 h -28.875 -28.875 v 86.625 86.625 h -14.25 -14.25 z m 374.25,-12.75 v -99.375 h 14.625 14.625 v 13.0776 13.0776 l 8.5741,-5.4819 c 17.4592,-11.1626 40.0212,-21.0308 54.9884,-24.0507 l 2.4375,-0.4918 v 15.2471 15.2471 l -9.379,2.4274 c -15.4353,3.9948 -34.6178,11.7902 -49.1505,19.9739 l -7.092,3.9937 -0.1912,72.8649 -0.1913,72.8651 h -14.6212 -14.6213 v -99.375 z m 163.5,0 v -99.375 h 14.625 14.625 v 6.7575 6.7576 l 6.7354,-3.3827 c 8.8987,-4.4692 19.7763,-8.7641 28.5322,-11.2655 9.5548,-2.7295 26.1837,-3.4247 36.3574,-1.5198 11.8608,2.2208 21.1532,6.7962 28.6597,14.1115 4.5418,4.4263 2.4111,4.6519 19.7153,-2.0874 13.1378,-5.1167 28.0333,-9.5562 39.2883,-11.7095 10.9669,-2.0982 29.6908,-1.7328 39.0432,0.7618 15.0606,4.0172 25.7741,12.5447 32.1734,25.6089 5.473,11.173 8.5029,23.7148 10.2293,42.3426 0.4468,4.8205 0.7648,34.0486 0.7652,70.3125 l 6e-4,62.0625 h -14.5742 -14.5743 l -0.3266,-66.1875 c -0.2776,-56.2829 -0.5064,-67.2249 -1.5282,-73.12 -3.6849,-21.2557 -9.8793,-30.2838 -23.9356,-34.8844 -6.9255,-2.2668 -22.9046,-2.2083 -33.0931,0.1211 -15.6172,3.5706 -37.8163,12.4298 -36.9304,14.7383 0.9459,2.4653 3.3992,16.0104 4.2712,23.5825 0.6114,5.3098 1.0129,28.702 1.2326,71.8125 l 0.3257,63.9375 h -14.6313 -14.6313 l -0.3298,-63.9375 c -0.3522,-68.2757 -0.4175,-69.5504 -4.2886,-83.6619 -4.0846,-14.8898 -12.66,-24.0566 -25.4861,-27.2438 -5.8517,-1.454 -19.9624,-1.247 -27.7298,0.4071 -8.2199,1.7503 -19.3921,5.6572 -28.2401,9.8754 l -7.0301,3.3517 v 80.6045 80.6045 h -14.625 -14.625 z m 737.25,0 v -99.375 h 14.625 14.625 v 99.375 99.375 h -14.625 -14.625 z m 342.75,0 v -99.375 h 14.625 14.625 v 6.375 c 0,3.5063 0.1784,6.375 0.3964,6.375 0.218,0 2.3274,-0.9698 4.6875,-2.1552 7.6318,-3.833 21.3178,-8.9698 30.5411,-11.4629 8.7827,-2.3739 9.3713,-2.4325 24.375,-2.4239 13.4701,0.01 16.1184,0.212 21.375,1.6498 21.3704,5.845 33.3317,19.6882 39.0869,45.2367 3.8192,16.954 4.1334,23.2654 4.5594,91.593 l 0.3963,63.5625 h -14.6472 -14.6472 l -0.33,-63.9375 c -0.3534,-68.4478 -0.6118,-73.5257 -4.3664,-85.7957 -6.4147,-20.9637 -21.1073,-28.9724 -47.1964,-25.726 -12.0368,1.4977 -29.2431,6.6976 -39.9179,12.0631 l -4.3125,2.1677 v 80.6142 80.6142 h -14.625 -14.625 z m 1381.5,0 v -99.375 h 15 15 v 6.7312 6.7313 l 7.6016,-3.7996 c 9.3055,-4.6512 18.7289,-8.3341 27.866,-10.8907 9.3995,-2.6301 26.1983,-3.291 36.1574,-1.4226 11.4509,2.1481 21.5308,7.2343 29.3822,14.8257 2.109,2.0391 3.5791,2.8974 4.5,2.6272 0.7523,-0.2207 6.5991,-2.4367 12.9928,-4.9245 14.4787,-5.6335 26.6484,-9.3376 38.9006,-11.8402 8.6269,-1.762 10.6149,-1.9024 22.2244,-1.5693 14.7591,0.4235 21.2504,1.8292 30.3745,6.5779 16.8388,8.764 25.5823,24.9861 29.6875,55.0811 1.1661,8.5485 1.3657,17.7971 1.6226,75.185 l 0.2929,65.4375 h -14.612 -14.6119 l -0.3522,-64.3125 c -0.3611,-65.9402 -0.5637,-70.7063 -3.5397,-83.2763 -4.593,-19.4004 -16.4279,-28.5307 -37.1117,-28.6306 -10.6689,-0.052 -28.1617,3.9941 -42,9.7137 -4.125,1.7049 -8.7979,3.6344 -10.3842,4.2879 -2.5267,1.0408 -2.8323,1.4301 -2.4651,3.1404 4.5661,21.2668 4.4349,18.7384 4.761,91.7649 l 0.3006,67.3125 h -14.2246 -14.2245 l -0.3468,-62.0625 c -0.2934,-52.5051 -0.5382,-63.3908 -1.5899,-70.6875 -2.9118,-20.2034 -8.1665,-31.2785 -17.7924,-37.5 -6.4555,-4.1724 -12.1321,-5.5592 -22.7841,-5.5664 -13.7344,-0.01 -26.7768,3.2898 -42.9375,10.8606 l -7.6875,3.6015 v 80.6771 80.6772 h -15 -15 z m -1724.25,-160.5 v -16.875 h 14.625 14.625 v 16.875 16.875 h -14.625 -14.625 z"
    style="fill:#000000;fill-opacity:0;stroke-width:0.75"/>
</svg>
