<?xml version="1.0" encoding="UTF-8" standalone="no"?>
<svg
  xmlns:svg="http://www.w3.org/2000/svg"
  xmlns="http://www.w3.org/2000/svg"
  width="2998.7888pt"
  height="2496.9658pt"
  viewBox="0 0 2998.7888 2496.9658"
  preserveAspectRatio="xMidYMid meet"
  id="svg10"
>
  <path
    style="fill:#dee8f3;fill-opacity:1;stroke-width:0.75"
    d="m 252.03938,449.49964 c -57.6624,-7.7773 -108.8289,-44.8984 -134.2651,-97.4086 -20.622005,-42.572 -23.369005,-89.5148 -7.8779,-134.625 5.8075,-16.9118 17.8799,-38.4377 29.7276,-53.0067 23.6277,-29.0545 57.6655,-50.447 94.7167,-59.5286 44.904,-11.006396 93.5205,-3.3792 132.6184,20.8057 30.1539,18.6525 55.0703,46.961 68.805,78.1722 10.2696,23.3369 15.0253,46.0253 15.0253,71.6824 0,27.8492 -5.4924,51.7578 -17.5812,76.5312 -26.1259,53.5395 -76.4379,89.6722 -135.6743,97.4374 -10.9967,1.4416 -34.5923,1.4104 -45.4945,-0.06 z"
    id="path4547"
  />
  <path
    style="fill:#ffffff;fill-opacity:1;stroke-width:0.75"
    d="m 649.91443,2394.6715 c -256.16255,-1.1474 -476.63445,-2.113 -489.93755,-2.1458 l -24.1875,-0.06 v -137.5808 c 0,-75.6693 0.2531,-137.7134 0.5625,-137.8755 0.3094,-0.1622 220.7812,0.6382 489.93755,1.7786 590.59047,2.5022 575.87197,2.4624 576.98827,1.5614 0.4877,-0.3937 2.743,-0.9532 5.0117,-1.2434 9.4228,-1.2054 32.7035,-5.7666 43.5238,-8.5272 96.8738,-24.7161 149.9314,-79.7528 165.3211,-171.4881 3.5863,-21.3777 5.2494,-58.9213 3.4605,-78.1209 -5.1167,-54.9148 -30.1506,-93.9979 -82.5554,-128.8858 -15.4105,-10.2594 -28.1947,-17.508 -49.5,-28.0666 -43.4066,-21.5114 -92.9956,-40.7936 -183.375,-71.3033 -111.84187,-37.7548 -176.02757,-63.1732 -238.87497,-94.5975 -163.0438,-81.5235 -238.1569,-176.0918 -260.5425,-328.0259 -5.0405,-34.211 -6.7738,-61.4299 -6.8058,-106.875 -0.026,-37.4163 0.3944,-47.6154 3.0326,-73.5 12.7709,-125.30082 61.8502,-224.75052 145.0675,-293.95136 82.002,-68.1902 196.2456,-107.331 340.49817,-116.6576 10.1063,-0.6534 27.4875,-1.8925 38.625,-2.7536 18.0208,-1.3932 23.5939,-1.5073 50.625,-1.0371 16.7063,0.2906 35.4375,0.8767 41.625,1.3024 7.3737,0.5072 129.5824,0.8778 354.6824,1.0755 l 343.4323,0.3017 -10.8466,11.0475 c -61.9161,63.0628 -110.9181,147.12994 -143.6013,246.36004 l -4.3847,13.3125 H 1427.493 c -282.1615,0 -330.2036,0.1524 -330.2036,1.0475 0,0.7479 -1.8772,1.3067 -6.5625,1.9534 -13.1435,1.8142 -30.9354,5.2775 -44.1717,8.5982 -113.63947,28.5098 -169.48617,100.99872 -163.77397,212.57862 1.7507,34.1955 7.7509,59.9608 19.4916,83.6973 9.3764,18.9564 19.2282,32.2673 36.1237,48.8069 22.7976,22.3174 50.5548,40.7934 91.76787,61.0836 46.5356,22.9105 95.8351,42.1629 190.125,74.2473 179.5603,61.0999 278.7582,105.924 345.629,156.1776 83.538,62.7792 123.9277,139.2257 135.8149,257.0596 2.6474,26.2421 3.3767,43.6195 3.3527,79.875 -0.053,79.0948 -7.2429,140.6976 -23.5224,201.5167 -13.0575,48.7824 -33.8535,95.2425 -59.3568,132.6083 -25.9416,38.008 -59.529,71.0024 -98.6559,96.9145 -32.5149,21.5332 -66.1977,37.5952 -108.2615,51.6256 -42.4442,14.1573 -89.0932,24.1246 -141.75,30.287 -23.3758,2.7357 -37.1274,3.85 -75.1875,6.0922 -7.8822,0.4644 -8.0625,0.5153 -8.0625,2.2779 v 1.8028 l -37.3125,-0.1043 c -20.5219,-0.057 -246.89997,-1.043 -503.06247,-2.1903 z m 1687.49997,-502.532 c -120.4938,-6.7488 -212.9385,-36.2498 -286.5,-91.4277 -58.5964,-43.9528 -104.5256,-107.469 -134.8462,-186.481 -25.3392,-66.0313 -41.587,-146.1571 -48.1123,-237.2647 -2.7416,-38.2781 -3.0413,-48.8353 -3.0239,-106.5 0.019,-61.0463 0.4752,-73.655 4.1418,-114.375 19.8185,-220.09742 98.3282,-378.09652 230.9656,-464.81366 47.428,-31.0079 102.2666,-52.8655 163.125,-65.0183 35.1416,-7.0175 67.4448,-10.2882 109.125,-11.049 72.2735,-1.3193 142.8131,7.6949 200.5927,25.6335 58.914,18.2908 107.225,44.0652 151.1989,80.6663 12.0026,9.9902 36.4339,34.42354 46.4339,46.43764 53.7076,64.5253 88.8904,144.7984 106.8411,243.76852 5.8736,32.3838 10.4441,71.9431 12.0446,104.25 0.8093,16.3361 1.187,19.5 2.3278,19.5 0.9102,0 1.061,16.7232 1.061,117.6311 v 117.6312 l -14.7456,0.4938 c -8.1101,0.2717 -176.1851,0.4939 -373.5,0.4939 h -358.7544 l 0.011,6.5625 c 0.044,25.013 4.8702,63.2322 11.2658,89.2187 24.2332,98.4642 86.3711,156.3866 186.4309,173.7831 5.8209,1.012 14.6592,2.2687 19.6405,2.7926 7.602,0.7995 9.1136,1.1687 9.4089,2.2978 0.3375,1.2905 11.0636,1.3453 263.297,1.3453 h 262.9452 v 121.8479 121.848 l -232.6875,0.4051 c -127.9781,0.2228 -251.7562,0.5282 -275.0625,0.6788 -23.3062,0.1505 -47.4375,-0.01 -53.625,-0.3564 z m 278.3892,-755.3609 c -2.4223,-112.0855 -26.8243,-188.45842 -74.7853,-234.06122 -35.531,-33.7842 -82.4843,-50.5337 -147.7289,-52.699 -45.6043,-1.5135 -89.0956,6.5042 -122.625,22.6065 -19.6342,9.4292 -34.1446,19.7947 -50.2983,35.9304 -16.4445,16.4263 -27.9706,32.5152 -38.8857,54.2793 -22.8294,45.52042 -35.8741,107.11432 -37.7127,178.06902 l -0.4615,17.8125 h 236.4858 236.4857 z M 135.78938,1240.0911 V 629.21604 h 139.5 139.5 v 610.87506 610.875 h -139.5 -139.5 z"
    id="path4566"
  />
</svg>
